<svg width="44" height="44" viewBox="0 0 44 44" fill="none" xmlns="http://www.w3.org/2000/svg">
<g style="mix-blend-mode:screen" opacity="0.7">
<path d="M0 0H31C38.1797 0 44 5.8203 44 13V44H14C6.26801 44 0 37.732 0 30V0Z" fill="white"/>
</g>
<path d="M31.307 15.1538C31.042 14.9708 30.705 14.9238 30.405 15.0318C30.306 15.0668 28.518 15.7118 27.258 17.3198C26.229 15.4878 24.975 13.9798 22.484 12.6068C22.185 12.4408 21.819 12.4408 21.52 12.6068C19.035 13.9718 17.807 15.4408 16.753 17.3168C15.492 15.7008 13.69 15.0648 13.59 15.0308C13.29 14.9278 12.956 14.9728 12.694 15.1558C11.1 16.2648 11.001 22.4308 11.001 22.4918C11.001 27.7428 12.198 29.5908 12.334 29.7838C12.451 29.9498 12.616 30.0758 12.807 30.1458C12.98 30.2098 17.114 31.7078 22.001 31.7078C26.888 31.7078 31.021 30.2098 31.194 30.1458C31.389 30.0748 31.556 29.9438 31.674 29.7738C31.81 29.5758 33 27.6948 33 22.4918C33 22.4298 32.9 16.2638 31.307 15.1558V15.1538Z" fill="#0A0A0A"/>
</svg>
