<svg width="24" height="24" viewBox="0 0 24 24" fill="none" xmlns="http://www.w3.org/2000/svg">
<g clip-path="url(#clip0_272_1401)">
<path d="M17.8292 10.762C17.6882 10.762 17.5472 10.717 17.4292 10.629C17.2022 10.459 17.1082 10.165 17.1932 9.89505L17.8202 7.88405L16.2352 6.59405C16.0222 6.41305 15.9442 6.11805 16.0412 5.85605C16.1372 5.59405 16.3872 5.41905 16.6672 5.41905H18.6682L19.3762 3.43205C19.4732 3.17105 19.7222 2.99805 20.0012 2.99805C20.2802 2.99805 20.5292 3.17105 20.6262 3.43205L21.3342 5.41905H23.3352C23.6152 5.41905 23.8652 5.59405 23.9612 5.85705C24.0572 6.12005 23.9782 6.41505 23.7642 6.59605L22.1872 7.88105L22.8392 9.86805C22.9282 10.137 22.8382 10.433 22.6132 10.606C22.3882 10.779 22.0792 10.791 21.8422 10.637L20.0062 9.44105L18.2012 10.649C18.0892 10.724 17.9582 10.762 17.8292 10.762ZM9.82922 7.76205C9.68822 7.76205 9.54722 7.71705 9.42922 7.62905C9.20222 7.45905 9.10822 7.16505 9.19322 6.89505L9.82022 4.88405L8.23522 3.59405C8.02222 3.41305 7.94422 3.11805 8.04122 2.85605C8.13722 2.59405 8.38722 2.41905 8.66722 2.41905H10.6682L11.3762 0.432047C11.4732 0.171047 11.7222 -0.00195312 12.0012 -0.00195312C12.2802 -0.00195312 12.5292 0.171047 12.6262 0.432047L13.3342 2.41905H15.3352C15.6152 2.41905 15.8652 2.59405 15.9612 2.85705C16.0572 3.12005 15.9782 3.41505 15.7642 3.59605L14.1872 4.88105L14.8392 6.86805C14.9282 7.13705 14.8382 7.43305 14.6132 7.60605C14.3882 7.77905 14.0792 7.79105 13.8422 7.63705L12.0062 6.44105L10.2012 7.64905C10.0892 7.72405 9.95822 7.76205 9.82922 7.76205ZM1.82922 10.762C1.68822 10.762 1.54722 10.717 1.42922 10.629C1.20222 10.459 1.10822 10.165 1.19322 9.89505L1.82022 7.88405L0.235219 6.59505C0.022219 6.41405 -0.055781 6.11905 0.041219 5.85705C0.137219 5.59505 0.387219 5.42005 0.667219 5.42005H2.66822L3.37622 3.43305C3.47322 3.17205 3.72222 2.99905 4.00122 2.99905C4.28022 2.99905 4.52922 3.17205 4.62622 3.43305L5.33422 5.42005H7.33522C7.61522 5.42005 7.86522 5.59505 7.96122 5.85805C8.05722 6.12105 7.97822 6.41605 7.76422 6.59705L6.18722 7.88205L6.83922 9.86905C6.92822 10.138 6.83822 10.434 6.61322 10.607C6.38822 10.78 6.07922 10.792 5.84222 10.638L4.00622 9.44205L2.20122 10.65C2.08922 10.725 1.95922 10.763 1.83022 10.763L1.82922 10.762ZM16.9992 14H12.8162L13.3962 10.735C13.4532 10.401 13.4252 10.216 13.4032 10.136C13.2152 9.44605 12.6532 9.00005 11.9712 9.00005C11.7582 9.00005 11.5432 9.04405 11.3312 9.13205C11.0772 9.23705 10.8282 9.49905 10.6492 9.85105L8.45622 14H7.00022C5.34322 14 4.00022 15.343 4.00022 17V21C4.00022 22.657 5.34322 24 7.00022 24V17C7.00022 16.448 7.44822 16 8.00022 16C8.55222 16 9.00022 16.448 9.00022 17V24H15.3792C17.2862 24 18.9272 22.654 19.3012 20.784L19.9402 17.588C20.3112 15.732 18.8912 14 16.9982 14H16.9992Z" fill="#FCFCFD"/>
</g>
<defs>
<clipPath id="clip0_272_1401">
<rect width="24" height="24" fill="white"/>
</clipPath>
</defs>
</svg>
