<svg width="200" height="200" viewBox="0 0 200 200" fill="none" xmlns="http://www.w3.org/2000/svg">
<path d="M25 66.6667H41.6667C55.45 66.6667 66.6667 55.45 66.6667 41.6667V25C66.6667 11.2167 55.45 0 41.6667 0H25C11.2167 0 0 11.2167 0 25V41.6667C0 55.45 11.2167 66.6667 25 66.6667ZM16.6667 25C16.6667 20.4 20.4 16.6667 25 16.6667H41.6667C46.2667 16.6667 50 20.4 50 25V41.6667C50 46.2667 46.2667 50 41.6667 50H25C20.4 50 16.6667 46.2667 16.6667 41.6667V25ZM66.6667 125V108.333C66.6667 94.55 55.45 83.3333 41.6667 83.3333H25C11.2167 83.3333 0 94.55 0 108.333V125C0 138.783 11.2167 150 25 150H41.6667C55.45 150 66.6667 138.783 66.6667 125ZM50 125C50 129.6 46.2667 133.333 41.6667 133.333H25C20.4 133.333 16.6667 129.6 16.6667 125V108.333C16.6667 103.733 20.4 100 25 100H41.6667C46.2667 100 50 103.733 50 108.333V125ZM108.333 66.6667H125C138.783 66.6667 150 55.45 150 41.6667V25C150 11.2167 138.783 0 125 0H108.333C94.55 0 83.3333 11.2167 83.3333 25V41.6667C83.3333 55.45 94.55 66.6667 108.333 66.6667ZM100 25C100 20.4 103.733 16.6667 108.333 16.6667H125C129.6 16.6667 133.333 20.4 133.333 25V41.6667C133.333 46.2667 129.6 50 125 50H108.333C103.733 50 100 46.2667 100 41.6667V25ZM108.333 37.5V29.1667C108.333 26.8667 110.2 25 112.5 25H120.833C123.133 25 125 26.8667 125 29.1667V37.5C125 39.8 123.133 41.6667 120.833 41.6667H112.5C110.2 41.6667 108.333 39.8 108.333 37.5ZM199.983 191.175C200.25 195.775 196.742 199.708 192.158 199.983C191.983 199.983 191.825 200 191.658 200C187.283 200 183.608 196.583 183.35 192.158C182.775 182.283 176.425 173.675 167.175 170.208L130.675 157.892C127.283 156.75 125 153.567 125 150V100.892C125 96.4083 121.983 92.4083 118.125 91.7833C115.592 91.35 113.167 92.025 111.275 93.6417C109.408 95.225 108.333 97.55 108.333 100V170.45C108.333 175.517 105.492 180.033 100.925 182.242C96.35 184.442 91.05 183.85 87.0917 180.683C87.0917 180.683 72.4167 168.975 72.3333 168.9C68.9833 165.792 63.7167 165.95 60.5833 169.3C57.4417 172.658 57.6167 177.95 60.9667 181.1L65.7 185.667C71.1 190.867 67.4167 200 59.9167 200C57.7583 200 55.6833 199.167 54.1333 197.667L49.4833 193.183C39.5167 183.85 38.9833 168 48.4 157.933C57.5917 148.083 72.9167 147.433 83 156.2C83.0667 156.25 91.6583 163.033 91.6583 163.033V100.008C91.6583 92.6583 94.875 85.7167 100.475 80.9583C106.075 76.1917 113.475 74.1667 120.8 75.3417C132.692 77.275 141.658 88.275 141.658 100.9V144.025L172.742 154.517C188.425 160.383 199.008 174.75 199.975 191.183L199.983 191.175Z" fill="white"/>
</svg>
