<?xml version="1.0" encoding="utf-8"?>
<!-- Generator: Adobe Illustrator 28.1.0, SVG Export Plug-In . SVG Version: 6.00 Build 0)  -->
<svg version="1.1" id="Layer_1" xmlns="http://www.w3.org/2000/svg" xmlns:xlink="http://www.w3.org/1999/xlink" x="0px" y="0px"
	 viewBox="0 0 200 200" style="enable-background:new 0 0 200 200;" xml:space="preserve">
<style type="text/css">
	.st0{fill:#FFFFFF;stroke:#FFFFFF;stroke-width:2;}
	.st1{fill:#FFFFFF;stroke:#FFFFFF;stroke-miterlimit:10;}
</style>
<path class="st0" d="M162.1,84L162.1,84 M162.1,84C162.1,84,162.1,84,162.1,84 M162.1,84C162.1,84,162.1,84,162.1,84 M162.1,84
	L162.1,84 M161.1,83.9L161.1,83.9l1,0.1c0,0,0,0,0-0.1v-0.1H161.1z M161.1,83.9L161.1,83.9l1,0.1c0,0,0,0,0-0.1v-0.1H161.1z
	 M161.1,83.9L161.1,83.9l1,0.1c0,0,0,0,0-0.1v-0.1H161.1z M161.1,83.9L161.1,83.9l1,0.1c0,0,0,0,0-0.1v-0.1H161.1z M161.1,83.9
	L161.1,83.9l1,0.1c0,0,0,0,0-0.1v-0.1H161.1z M161.1,83.9L161.1,83.9l1,0.1c0,0,0,0,0-0.1v-0.1H161.1z M161.1,83.9L161.1,83.9l1,0.1
	c0,0,0,0,0-0.1v-0.1H161.1z M161.1,83.9L161.1,83.9l1,0.1c0,0,0,0,0-0.1v-0.1H161.1z M161.1,83.9L161.1,83.9l1,0.1c0,0,0,0,0-0.1
	v-0.1H161.1z"/>
<path class="st0" d="M178.8,48.9c-2.2-2.8-5.4-4.8-9.7-6c0,0,0,0,0,0c0,0,0,0-0.1-0.1l-0.3-0.2H31.4l-0.2,0.1
	c-0.7,0.3-1.3,0.6-2,0.8c-0.4,0.2-0.9,0.4-1.4,0.6c-1.1,0.5-2.3,1-3.4,1.8c-2.1,1.4-3.7,3.2-4.8,5.3c-1.1,2.1-1.6,4.4-1.6,6.9
	c0,10.1,1.5,22.1,3.3,34c0.6,4,1.3,7.9,1.9,11.8c1.3,7.8,2.5,15.3,3.3,22.1c1,8.5,7.1,15.4,16,15.4c10.2,0,18.2,0,27,0
	c4.3,0,8.8,0,13.8,0c8.8,0,17,0,25.1,0.1c15.9,0.1,31.1,0.1,48-0.1c4.2-0.1,7.4-1,9.8-2.6c2.4-1.6,3.9-3.8,4.9-6.3
	c1-2.5,1.4-5.2,1.7-7.9c0.1-1.2,0.2-2.4,0.3-3.6c0-0.1,0-0.3,0-0.4c0.1-1.3,0.2-2.6,0.4-3.8c0.9-7,2.2-13.9,3.6-20.8
	c0.5-2.6,1-5.1,1.5-7.6C180.6,79,182,69.5,182,60C182,55.5,181,51.7,178.8,48.9z M170.8,91.8c-0.6,3.6-1.1,7.2-1.7,10.7
	c-1.2,7.7-2.5,15.2-3.3,21.9c-0.4,3.1-1.2,5.3-2.6,6.8c-1.4,1.4-3.4,2.3-6.4,2.3H43.5c-3,0-5-0.8-6.4-2.3c-1.4-1.5-2.2-3.7-2.7-6.8
	c-0.8-5.6-1.8-11.6-2.9-17.8c-0.9-5-1.7-10.1-2.5-15.1c-1.8-11.3-3.2-22.5-3.2-32c0-3,0.8-5.2,2.3-6.7c1.4-1.5,3.6-2.3,6.6-2.3
	h130.4c3,0,5.1,0.8,6.6,2.3c1.5,1.5,2.3,3.7,2.3,6.7C174.1,69,172.6,80.3,170.8,91.8z"/>
<path class="st0" d="M162.1,83.9h-1l0.1,0L162,84c-0.3,2.8-0.9,6.9-1.4,11c0,0.3-0.1,0.7-0.1,1c-0.5,3.8-1,7.4-1.3,10
	c-0.2,1.3-0.6,2.3-1.4,3c-0.8,0.7-1.8,1-2.9,1c-1.2,0-2.3-0.6-2.9-1.5c-0.6-0.9-0.8-2.1-0.6-3.4c0.1-1.4,0.6-4.2,1-6.9l0.1-0.5
	c0.4-2.6,0.7-5,0.9-6.3c0.1-0.8,0.2-1.7,0.3-2.5c0.2-1.9,0.5-3.9,0.7-5.8c0.2-1.2,0.6-2.3,1.4-3.1c0.8-0.8,1.9-1.1,3-1
	c1.2,0.1,2.1,0.7,2.8,1.6C162,81.6,162.2,82.7,162.1,83.9z"/>
<path class="st1" d="M137.6,161.7c-1.2-3.1-4.3-4.2-8-2.8c-1.1,0.4-2.1,0.8-3.4,1.2c8.4-27.8,9.7-55.8,7.2-84.5l0,0
	c-1.3-3.6-1.5-11.5-2.1-14.9c-2.3-12.5-5.5-24.7-11.5-36c-2.5-4.7-5.4-9-9.4-12.6c-8.8-7.9-19.1-8.1-27.9-0.4
	c-5.4,4.7-9,10.8-11.9,17.3c-1.2,2.6,0.2,5.7,2.8,6.9c2.7,1.3,5.8,0.2,7.3-2.4c1.2-2.2,2.2-4.6,3.6-6.6c1.8-2.5,3.7-5.1,6-7.1
	c3.8-3.5,7.9-3.6,11.7-0.1c2.7,2.4,5.1,5.4,6.9,8.5c6.2,10.6,9.1,22.3,11.5,34.5l2.6,21.3l0,0c1.6,24.1,0,47.7-6.8,70.9l-1-2.3
	c-1.5-3.4-4.5-4.8-7.6-3.5c-3,1.3-4.1,4.5-2.6,7.9c1.6,3.8,3.3,7.6,4.9,11.5c0.2,0.5,0.4,1.3,0.2,1.7c-2.3,4.3-4.8,8.4-9,11.2
	c-3.2,2.2-6.5,2.3-9.6,0c-1.8-1.3-3.5-3-4.9-4.7c-4-4.9-6.4-10.7-8.6-16.5c-2.3-6.4-4.1-12.9-5.4-19.6c-0.4-2.1-2.3-3.5-4.4-3.4
	c-4,0.2-6.8,3.9-6,7.8c2,9.6,4.8,18.9,9,27.8c3,6.2,6.6,12,12.1,16.4c3.1,2.5,6.6,4,10.3,4.9h5.2c6.2-1.4,11.1-4.8,15-9.7
	c2-2.5,3.7-5.2,5.3-7.9c0.9-1.7,2.1-2.7,3.9-3.3c3.6-1.2,7.1-2.6,10.7-4C137.2,167.8,138.8,164.8,137.6,161.7L137.6,161.7z"/>
</svg>
