<svg width="184" height="200" viewBox="0 0 184 200" fill="none" xmlns="http://www.w3.org/2000/svg">
<path d="M108.667 108.333C108.68 111.262 107.921 114.143 106.467 116.685C105.012 119.227 102.914 121.341 100.382 122.814C97.851 124.287 94.9761 125.067 92.0473 125.075C89.1185 125.084 86.2393 124.32 83.6995 122.861C81.1598 121.403 79.0493 119.3 77.5806 116.767C76.1119 114.233 75.3368 111.356 75.3335 108.428C75.3302 105.499 76.0987 102.621 77.5616 100.084C79.0245 97.5464 81.1302 95.4394 83.6666 93.975V58.3333C83.6666 56.1232 84.5446 54.0036 86.1074 52.4408C87.6702 50.878 89.7898 50 92 50C94.2101 50 96.3297 50.878 97.8925 52.4408C99.4553 54.0036 100.333 56.1232 100.333 58.3333V93.975C102.859 95.4275 104.959 97.5188 106.422 100.039C107.884 102.559 108.658 105.42 108.667 108.333ZM159.167 46.1583C171.308 59.2315 179.371 75.5639 182.366 93.1525C185.361 110.741 183.158 128.821 176.027 145.176C168.896 161.531 157.147 175.449 142.222 185.224C127.296 194.999 109.842 200.206 92 200.206C74.1582 200.206 56.7042 194.999 41.7784 185.224C26.8526 175.449 15.1039 161.531 7.97302 145.176C0.84213 128.821 -1.36095 110.741 1.63396 93.1525C4.62887 75.5639 12.6916 59.2315 24.8333 46.1583L19.2333 39.9333C15.8403 41.1277 12.2634 41.7144 8.66664 41.6667C6.4565 41.6667 4.33688 40.7887 2.77408 39.2259C1.21128 37.6631 0.333303 35.5435 0.333303 33.3333C0.333303 31.1232 1.21128 29.0036 2.77408 27.4408C4.33688 25.878 6.4565 25 8.66664 25C15.2083 25 17 23.2083 17 16.6667C17 14.4565 17.8779 12.3369 19.4407 10.7741C21.0036 9.21131 23.1232 8.33333 25.3333 8.33333C27.5434 8.33333 29.6631 9.21131 31.2259 10.7741C32.7887 12.3369 33.6666 14.4565 33.6666 16.6667C33.7152 20.7219 32.9206 24.743 31.3333 28.475L37.2166 35.0083C50.7342 24.8356 66.8192 18.6313 83.6666 17.0917V8.33333C83.6666 6.1232 84.5446 4.00358 86.1074 2.44078C87.6702 0.877974 89.7898 0 92 0C94.2101 0 96.3297 0.877974 97.8925 2.44078C99.4553 4.00358 100.333 6.1232 100.333 8.33333V17.0917C117.18 18.6289 133.265 24.8303 146.783 35L152.667 28.4667C151.08 24.7372 150.286 20.7191 150.333 16.6667C150.333 14.4565 151.211 12.3369 152.774 10.7741C154.337 9.21131 156.457 8.33333 158.667 8.33333C160.877 8.33333 162.996 9.21131 164.559 10.7741C166.122 12.3369 167 14.4565 167 16.6667C167 23.2083 168.792 25 175.333 25C177.543 25 179.663 25.878 181.226 27.4408C182.789 29.0036 183.667 31.1232 183.667 33.3333C183.667 35.5435 182.789 37.6631 181.226 39.2259C179.663 40.7887 177.543 41.6667 175.333 41.6667C171.737 41.7144 168.16 41.1277 164.767 39.9333L159.167 46.1583ZM167 108.333C167 93.4997 162.601 78.9993 154.36 66.6656C146.119 54.3319 134.406 44.7189 120.701 39.0424C106.997 33.3658 91.9168 31.8806 77.3682 34.7744C62.8196 37.6683 49.4559 44.8114 38.967 55.3003C28.478 65.7893 21.335 79.153 18.4411 93.7016C15.5472 108.25 17.0324 123.33 22.709 137.035C28.3856 150.739 37.9985 162.452 50.3322 170.694C62.6659 178.935 77.1664 183.333 92 183.333C111.884 183.311 130.948 175.402 145.009 161.342C159.069 147.282 166.978 128.218 167 108.333Z" fill="white"/>
</svg>
