<svg width="24" height="24" viewBox="0 0 24 24" fill="none" xmlns="http://www.w3.org/2000/svg">
<path d="M14.239 8.43663C12.7128 5.18237 9.59237 2.2634 9.41795 2.11982C9.42851 2.10124 9.43147 2.09068 9.43485 2.09068C9.66627 2.08773 9.89811 2.08646 10.1295 2.0835C10.4518 2.07886 10.6566 1.90487 10.6566 1.63713C10.6561 1.36812 10.4496 1.18907 10.13 1.18864C9.11812 1.18695 8.1067 1.18949 7.09529 1.18653C6.90145 1.18569 6.75195 1.25157 6.66116 1.42429C6.57121 1.59532 6.59908 1.75749 6.69832 1.92049C7.08557 2.55564 7.46733 3.19374 7.85121 3.83099C7.91624 3.9391 7.97663 4.05102 8.05138 4.15237C8.19961 4.35423 8.44497 4.39899 8.64894 4.27104C8.84278 4.14941 8.91415 3.91419 8.81279 3.69966C8.76212 3.59197 8.69624 3.49189 8.635 3.38927C8.4361 3.05565 8.23593 2.72245 8.03618 2.38883C9.17006 2.9222 11.9087 5.92773 13.4273 8.43748L13.0033 8.43621C11.1942 8.43621 9.38501 8.43495 7.57587 8.43579C7.46649 8.43537 7.35711 8.43537 7.24731 8.43579C6.60204 8.43579 5.95633 8.43621 5.31063 8.43706C4.19111 8.43875 3.29498 9.15244 3.06398 10.2251C3.02301 10.4155 3.01288 10.6153 3.01077 10.8108C3.00443 11.4358 3.00823 12.0608 3.00823 12.6863V14.911C3.00823 15.5643 3.0019 16.2172 3.00992 16.8705C3.02639 18.2016 3.98798 19.1623 5.31992 19.1737C6.29629 19.1821 7.27265 19.1809 8.2486 19.1712C8.45088 19.1691 8.57335 19.224 8.69328 19.3971C9.27859 20.2425 9.93316 21.0293 10.7275 21.691C11.3563 22.2151 12.0502 22.6091 12.8627 22.7688H13.5375C13.5612 22.7565 13.5836 22.7375 13.6089 22.7324C14.1786 22.6231 14.638 22.3321 14.9962 21.8819C15.576 21.1535 15.8015 20.2882 15.9332 19.392C15.9577 19.2244 16.0059 19.1699 16.1773 19.1716C17.0131 19.18 17.8492 19.1809 18.685 19.1741C19.9671 19.1636 20.9785 18.2303 20.9916 17.0022C21.0114 15.1483 21.0098 12.4494 20.9916 10.5954C20.981 9.53631 20.1639 8.62836 19.114 8.4776C18.7758 8.42903 14.5827 8.44508 14.2394 8.43706L14.239 8.43663ZM14.6896 20.6256C14.5755 20.8785 14.4353 21.1285 14.2622 21.3439C13.8775 21.8245 13.3652 21.9643 12.7715 21.8148C12.2351 21.6801 11.7867 21.3836 11.3639 21.042C10.7115 20.5145 10.1671 19.887 9.64262 19.1843H15.054C14.9962 19.6893 14.8944 20.1729 14.6896 20.6256ZM15.13 18.2691H14.8927C11.7246 18.2691 8.55603 18.2565 5.38749 18.2776C4.53782 18.2835 3.89127 17.661 3.90605 16.7881C3.92505 15.6948 3.93139 12.9595 3.92632 11.8657L3.91999 11.8729C3.91661 11.5233 3.91196 11.1732 3.90647 10.8235C3.89211 9.95397 4.5091 9.32052 5.40481 9.32601C5.78446 9.32854 6.16368 9.33023 6.54333 9.3315C6.58176 9.33192 6.61977 9.33192 6.6582 9.33192C8.91035 9.33952 11.1621 9.33234 13.4142 9.32812C13.573 9.32769 13.6482 9.37415 13.7018 9.52491C14.4531 11.6292 14.9826 14.6272 15.1258 16.8637C15.1549 17.3232 15.13 17.7864 15.13 18.2691ZM20.1031 16.7966C20.1026 17.7138 19.5511 18.267 18.6377 18.2687C17.8514 18.2704 17.0646 18.2691 16.2783 18.2691H16.0536C16.0557 15.4726 15.5506 11.9561 14.5865 9.34543C14.6735 9.33994 14.7398 9.33234 14.8057 9.33234C16.0764 9.3315 17.3471 9.33107 18.6178 9.33192C19.5418 9.33276 20.1026 9.89147 20.1031 10.8129C20.1043 12.5258 20.1043 15.0833 20.1031 16.7966Z" fill="white" stroke="white" stroke-width="0.900914"/>
</svg>
