<svg width="24" height="24" viewBox="0 0 24 24" fill="none" xmlns="http://www.w3.org/2000/svg">
<g clip-path="url(#clip0_1068_11841)">
<path d="M8.50027 9.49991C8.50027 10.0509 8.62827 10.5729 8.85627 11.0369C8.36627 11.6649 8.06127 12.4439 8.02027 13.2929C7.07927 12.3049 6.50027 10.9689 6.50027 9.50091C6.50027 6.08991 9.62227 3.39391 13.1593 4.11991C15.2413 4.54791 16.9283 6.22491 17.3723 8.30391C17.5063 8.93191 17.5313 9.54691 17.4633 10.1349C17.4053 10.6329 16.9683 11.0009 16.4663 11.0009H16.4213C15.8293 11.0009 15.4133 10.4739 15.4783 9.88591C15.5223 9.49091 15.4993 9.07591 15.3983 8.65291C15.1003 7.39991 14.0783 6.38491 12.8233 6.09591C10.5373 5.57091 8.49927 7.30291 8.49927 9.50091L8.50027 9.49991ZM4.61027 8.20491C4.88427 6.61191 5.66327 5.15991 6.87127 4.02691C8.40027 2.59391 10.4023 1.88591 12.5013 2.01591C16.4543 2.27191 19.5453 5.73491 19.4993 9.88091C19.4803 11.6169 18.0263 12.9989 16.2913 12.9989H13.8853C13.6413 12.1699 12.8833 11.5599 11.9753 11.5599C10.8703 11.5599 9.97527 12.4549 9.97527 13.5599C9.97527 14.6649 10.8703 15.5599 11.9753 15.5599C12.5133 15.5599 13.0003 15.3449 13.3593 14.9989H16.2913C19.1103 14.9989 21.4593 12.7539 21.4993 9.93591C21.5733 4.71491 17.6513 0.34491 12.6303 0.0209097C9.96627 -0.15209 7.43927 0.75291 5.50427 2.56891C4.00527 3.97391 3.00827 5.83391 2.64927 7.83491C2.54027 8.44291 3.02127 9.00091 3.63827 9.00091C4.11027 9.00091 4.53127 8.67191 4.61027 8.20591V8.20491ZM12.0003 16.9999C8.30527 16.9999 5.10827 19.2919 4.04527 22.7019C3.88027 23.2289 4.17527 23.7899 4.70227 23.9549C5.22827 24.1139 5.78927 23.8239 5.95427 23.2979C6.30527 22.1709 7.00627 21.2089 7.90627 20.4729L9.30727 22.5739C9.66227 23.1059 10.4433 23.1059 10.7983 22.5739L12.0523 20.6919L13.3063 22.5739C13.6613 23.1059 14.4423 23.1059 14.7973 22.5739L16.1603 20.5299C17.0273 21.2589 17.7023 22.1999 18.0443 23.2979C18.1783 23.7259 18.5723 23.9999 18.9993 23.9999C19.0983 23.9999 19.1973 23.9849 19.2973 23.9549C19.8243 23.7899 20.1183 23.2289 19.9543 22.7019C18.8913 19.2919 15.6943 16.9999 11.9993 16.9999H12.0003Z" fill="#FCFCFD"/>
</g>
<defs>
<clipPath id="clip0_1068_11841">
<rect width="24" height="24" fill="white"/>
</clipPath>
</defs>
</svg>
