<?xml version="1.0" encoding="utf-8"?>
<!-- Generator: Adobe Illustrator 28.1.0, SVG Export Plug-In . SVG Version: 6.00 Build 0)  -->
<svg version="1.1" id="Layer_1" xmlns="http://www.w3.org/2000/svg" xmlns:xlink="http://www.w3.org/1999/xlink" x="0px" y="0px"
	 viewBox="0 0 200 200" style="enable-background:new 0 0 200 200;" xml:space="preserve">
<style type="text/css">
	.st0{fill:#FFFFFF;stroke:#FFFFFF;stroke-width:2;}
	.st1{fill:#FFFFFF;}
</style>
<path class="st0" d="M161.4,117.9c-0.6,0.9-1.6,1.5-2.8,1.6c-1.2,0.1-2.2-0.2-3-1c-0.8-0.8-1.3-1.8-1.4-3.1
	c-0.2-1.9-0.5-3.9-0.7-5.8c-0.1-0.8-0.2-1.7-0.3-2.5c-0.2-1.3-0.5-3.7-0.9-6.3l-0.1-0.5c-0.4-2.7-0.8-5.5-1-6.9
	c-0.1-1.2,0.1-2.4,0.6-3.4c0.6-1,1.6-1.5,2.9-1.5c1.1,0,2.1,0.3,2.9,1c0.8,0.7,1.3,1.8,1.4,3c0.3,2.5,0.8,6.2,1.3,10
	c0,0.3,0.1,0.7,0.1,1c0.6,4.1,1.1,8.2,1.4,11l-0.9,0.1l-0.1,0h1C162.2,115.9,162,117,161.4,117.9z"/>
<path class="st0" d="M182,138.6c0,4.5-1,8.2-3.2,11.1c-2.1,2.7-5.1,4.6-9.2,5.8c-0.4,0.1-0.7,0.2-1.1,0.2c-4.9,0-41.1,0.3-41.1,0.3
	c0.7-2.3,1.3-4.6,1.8-7c0.1-0.3,0.1-0.7,0.2-1h35.8c3,0,5.1-0.8,6.6-2.3c1.5-1.5,2.3-3.7,2.3-6.7c0-9.5-1.5-20.8-3.2-32.2
	c-0.6-3.6-1.1-7.2-1.7-10.7c-1.2-7.7-2.5-15.2-3.3-21.9c-0.4-3.1-1.2-5.3-2.6-6.8c-1.4-1.4-3.4-2.3-6.4-2.3H132l-1.4-8.1
	c8.4,0,17,0,26.1,0.1c4.2,0,7.4,1,9.8,2.5c2.4,1.6,3.9,3.8,4.9,6.3c1,2.5,1.4,5.2,1.7,7.9c0.1,1.2,0.2,2.4,0.3,3.6
	c0,0.2,0,0.3,0,0.4c0.1,1.3,0.2,2.6,0.4,3.8c0.9,7,2.2,13.9,3.6,20.8c0.5,2.5,1,5.1,1.5,7.6C180.6,119.6,182,129.1,182,138.6z"/>
<path class="st0" d="M34.8,148H118c-0.1,0.3-0.2,0.7-0.2,1c-0.6,2.4-1.2,4.7-2,7l-82.3-0.1c-1.5,0-2.9-0.3-4.3-0.8c0,0,0,0,0,0
	c-0.4-0.2-0.9-0.3-1.4-0.5c-1.1-0.5-2.3-1-3.4-1.8c-2.1-1.4-3.7-3.2-4.8-5.3c-1.1-2.1-1.6-4.4-1.6-6.9c0-10.1,1.5-22.1,3.3-34
	c0.6-4,1.3-7.9,1.9-11.8c1.3-7.8,2.5-15.4,3.3-22.1c1-8.5,7.1-15.4,16-15.4c7.2,0,13.4,0,19.4,0c0.3,3.1,2.8,5.6,6,5.9
	c2.1,0.1,4.1-1.4,4.5-3.5c0.2-0.8,0.3-1.6,0.5-2.4c3.3,0,6.7,0,10.4,0c8.8,0,17,0,25.1-0.1c3.5,0,7,0,10.4,0
	c0.6,2.7,1.1,5.4,1.6,8.1H43.5c-3,0-5,0.8-6.4,2.3c-1.4,1.5-2.2,3.7-2.7,6.8c-0.8,5.6-1.8,11.6-2.9,17.8c-0.9,5-1.7,10.1-2.5,15.1
	c-1.8,11.3-3.2,22.5-3.2,32c0,3,0.8,5.2,2.3,6.7C29.6,147.2,31.8,148,34.8,148z"/>
<path class="st1" d="M137.6,38.3c-1.2,3.1-4.3,4.2-8,2.8c-1-0.4-2.1-0.8-3.4-1.2c1.7,5.7,3.1,11.3,4.3,17c0.5,2.7,1,5.4,1.5,8.1
	c1.2,7.9,2,15.8,2.4,23.7c0.5,11.8,0.1,23.7-0.9,35.6l0,0c-1.2,3.5-1.5,11-2.1,14.6c0,0.1,0,0.2-0.1,0.3c-0.2,0.9-0.3,1.9-0.5,2.8
	c-0.4,2-0.8,3.9-1.2,5.9c-0.1,0.3-0.2,0.7-0.2,1c-0.6,2.3-1.2,4.7-1.8,7c-1.9,6.7-4.4,13.2-7.7,19.4c-2.5,4.7-5.4,9-9.4,12.6
	c-8.8,7.9-19,8.1-27.9,0.4c-5.4-4.7-9-10.8-11.9-17.3c-1.2-2.7,0.2-5.7,2.8-6.9c2.7-1.2,5.8-0.2,7.3,2.4c1.2,2.2,2.2,4.6,3.6,6.6
	c1.8,2.5,3.7,5.1,6,7.2c3.8,3.5,7.9,3.6,11.7,0.1c2.7-2.4,5.1-5.4,6.9-8.5c3-5.1,5.2-10.4,7-16c0.7-2.3,1.4-4.6,2-7
	c0.1-0.3,0.2-0.7,0.2-1c0.4-1.7,0.8-3.3,1.1-5c0.3-1.3,0.5-2.6,0.8-3.9c0.1-0.5,0.2-1.1,0.3-1.6l2.6-21.3l0,0
	c0.5-7.5,0.7-14.9,0.5-22.2c-0.2-9.7-1.1-19.3-2.7-28.8c-0.5-2.7-1-5.4-1.6-8.1c-0.9-4-1.9-7.9-3-11.8l-1,2.3
	c-1.5,3.4-4.5,4.8-7.6,3.5c-3-1.3-4.1-4.5-2.6-7.9c1.6-3.8,3.3-7.6,4.9-11.5c0.2-0.5,0.4-1.3,0.2-1.7c-2.2-4.3-4.8-8.4-8.9-11.2
	c-3.2-2.2-6.5-2.3-9.6,0c-1.8,1.3-3.5,3-4.9,4.7c-4,4.9-6.5,10.7-8.6,16.5c-2,5.6-3.6,11.3-4.9,17.2c-0.2,0.8-0.3,1.7-0.5,2.5
	c-0.4,2.1-2.3,3.5-4.4,3.4c-3.3-0.2-5.8-2.8-6.1-5.9c-0.1-0.6,0-1.3,0.1-2c2-9.6,4.8-18.9,9-27.8c3-6.2,6.7-12,12.1-16.5
	c3-2.5,6.6-4,10.3-4.9h5.2c6.2,1.4,11.1,4.8,15,9.7c2,2.5,3.7,5.2,5.3,7.9c0.9,1.7,2.1,2.7,3.9,3.3c3.6,1.2,7.1,2.6,10.7,4
	C137.2,32.2,138.8,35.2,137.6,38.3z"/>
</svg>
