<svg width="32" height="32" viewBox="0 0 32 32" fill="none" xmlns="http://www.w3.org/2000/svg">
<mask id="path-1-inside-1_84_663" fill="white">
<path d="M0 16C0 7.16344 7.16344 0 16 0V0C24.8366 0 32 7.16344 32 16V16C32 24.8366 24.8366 32 16 32V32C7.16344 32 0 24.8366 0 16V16Z"/>
</mask>
<path d="M0 16C0 7.16344 7.16344 0 16 0V0C24.8366 0 32 7.16344 32 16V16C32 24.8366 24.8366 32 16 32V32C7.16344 32 0 24.8366 0 16V16Z" fill="#FFC107"/>
<path d="M0 0H32H0ZM33.6 16.8C33.6 26.0784 26.0784 33.6 16.8 33.6H16.8C7.52162 33.6 0 26.0784 0 16.8V16C0 23.9529 7.16344 30.4 16 30.4H16C23.9529 30.4 30.4 23.9529 30.4 16L33.6 16.8ZM0 32V0V32ZM16.8 0C26.0784 0 33.6 7.52162 33.6 16.8V16.8C33.6 26.0784 26.0784 33.6 16.8 33.6L16 30.4C23.9529 30.4 30.4 23.9529 30.4 16V16C30.4 7.16344 23.9529 0 16 0H16.8Z" fill="#B58905" mask="url(#path-1-inside-1_84_663)"/>
<g clip-path="url(#clip0_84_663)">
<path d="M9.07121 20C9.62265 20.9571 10.8456 21.2859 11.8026 20.7344C11.8033 20.7341 11.8039 20.7337 11.8046 20.7333L12.1012 20.562C12.6612 21.0411 13.3049 21.4127 13.9999 21.658V22C13.9999 23.1046 14.8953 24 15.9999 24C17.1044 24 17.9999 23.1046 17.9999 22V21.658C18.6949 21.4123 19.3387 21.0403 19.8985 20.5607L20.1965 20.7327C21.1538 21.2849 22.3776 20.9566 22.9299 19.9993C23.4822 19.042 23.1538 17.8182 22.1965 17.266L21.9005 17.0953C22.0338 16.3703 22.0338 15.627 21.9005 14.902L22.1965 14.7313C23.1538 14.179 23.4822 12.9553 22.9299 11.998C22.3776 11.0407 21.1538 10.7123 20.1965 11.2646L19.8999 11.436C19.3393 10.9574 18.6952 10.5866 17.9999 10.342V10C17.9999 8.89544 17.1044 8 15.9999 8C14.8953 8 13.9999 8.89544 13.9999 10V10.342C13.3048 10.5877 12.6611 10.9597 12.1012 11.4393L11.8032 11.2667C10.8459 10.7144 9.62215 11.0427 9.06987 12C8.51759 12.9573 8.8459 14.1811 9.80321 14.7333L10.0992 14.904C9.96596 15.629 9.96596 16.3723 10.0992 17.0973L9.80321 17.268C8.84856 17.8217 8.52131 19.0431 9.07121 20ZM15.9999 13.3333C17.4726 13.3333 18.6665 14.5273 18.6665 16C18.6665 17.4727 17.4726 18.6667 15.9999 18.6667C14.5271 18.6667 13.3332 17.4727 13.3332 16C13.3332 14.5273 14.5271 13.3333 15.9999 13.3333Z" fill="#171717"/>
</g>
<defs>
<clipPath id="clip0_84_663">
<rect width="16" height="16" fill="white" transform="translate(8 8)"/>
</clipPath>
</defs>
</svg>
