<svg width="24" height="24" viewBox="0 0 24 24" fill="none" xmlns="http://www.w3.org/2000/svg">
<g clip-path="url(#clip0_421_755)">
<path d="M22 19.279V23C22 23.552 21.553 24 21 24C20.447 24 20 23.552 20 23V19.279C20 17.854 18.985 16.617 17.588 16.337L10.804 14.98C10.337 14.887 10 14.476 10 14V7.10698C10 6.56898 9.63802 6.08898 9.17602 6.01498C8.87002 5.96498 8.58002 6.04498 8.35302 6.23798C8.12902 6.42798 8.00002 6.70598 8.00002 6.99998V20.638C8.00002 21.022 7.78002 21.372 7.43402 21.539C7.09002 21.706 6.67802 21.661 6.37702 21.42L3.74002 19.32C3.27702 18.892 2.64502 18.914 2.27002 19.316C1.89402 19.719 1.91502 20.355 2.31702 20.733L3.69402 22.061C4.09102 22.444 4.10302 23.077 3.71902 23.475C3.33602 23.872 2.70302 23.883 2.30502 23.5L0.938018 22.182C-0.256982 21.061 -0.320982 19.159 0.808018 17.951C1.93702 16.745 3.83702 16.68 5.04502 17.807L6.00002 18.566V6.99998C6.00002 6.11898 6.38502 5.28598 7.05702 4.71398C7.72802 4.14198 8.61802 3.89598 9.49602 4.03998C10.923 4.27098 11.999 5.58998 11.999 7.10598V13.179L17.979 14.375C20.308 14.841 21.999 16.903 21.999 19.278L22 19.279ZM3.54402 10.5C3.68402 10.5 3.82502 10.471 3.96102 10.409C4.46302 10.179 4.68302 9.58498 4.45302 9.08298C4.15202 8.42798 4.00002 7.72698 4.00002 6.99998C4.00002 4.24298 6.24302 1.99998 9.00002 1.99998C11.757 1.99998 14 4.24298 14 6.99998C14 7.72898 13.848 8.42898 13.548 9.08298C13.317 9.58498 13.537 10.179 14.038 10.409C14.543 10.64 15.135 10.42 15.364 9.91798C15.786 9.00098 16 8.01898 16 7.00098C16 3.14098 12.86 0.000976562 9.00002 0.000976562C5.14002 0.000976562 2.00002 3.13998 2.00002 6.99998C2.00002 8.01698 2.21402 8.99798 2.63502 9.91698C2.80302 10.284 3.16602 10.5 3.54502 10.5H3.54402Z" fill="white"/>
</g>
<defs>
<clipPath id="clip0_421_755">
<rect width="24" height="24" fill="white"/>
</clipPath>
</defs>
</svg>
