<svg width="140" height="173" viewBox="0 0 140 173" fill="none" xmlns="http://www.w3.org/2000/svg">
<path d="M20.1512 22.0401C15.1592 22.5735 10.5726 22.8401 6.39125 22.8401C4.30058 22.8401 2.76458 22.3495 1.78325 21.3681C0.801915 20.3868 0.311249 18.8508 0.311249 16.7601V6.52012C0.311249 4.28012 0.812582 2.65878 1.81525 1.65612C2.83925 0.632118 4.47125 0.120117 6.71125 0.120117H18.2312V4.60012H7.99125C6.71125 4.60012 6.07125 5.24012 6.07125 6.52012V16.7601C6.07125 17.2508 6.20992 17.6455 6.48725 17.9441C6.78592 18.2215 7.18058 18.3601 7.67125 18.3601C10.1246 18.3601 12.3646 18.3068 14.3912 18.2001V13.5601H10.2312V9.72012H20.1512V22.0401Z" fill="white"/>
<path d="M43.0375 22.5201H36.7975L45.2775 0.120117H51.6775L60.1575 22.5201H53.9175L52.4775 18.5201H44.4775L43.0375 22.5201ZM45.9175 14.3601H51.0375L48.4775 6.84012L45.9175 14.3601Z" fill="white"/>
<path d="M96.6363 10.0401L92.1562 18.0401H87.6762L83.1963 10.0401V22.5201H77.4362V0.120117H83.5163L89.9163 11.9601L96.3163 0.120117H102.396V22.5201H96.6363V10.0401Z" fill="white"/>
<path d="M139.689 22.5201H121.929V0.120117H139.689V4.60012H127.689V8.92012H137.129V13.4001H127.689V18.0401H139.689V22.5201Z" fill="white"/>
<path d="M70.0382 42.8403C37.4691 42.8403 0.986364 48.3925 0 87.5671C0.299091 98.966 3.57636 113.988 10.2264 121.847C14.4709 126.859 21.9927 129.54 29.8836 128.848C37.7109 128.16 44.2273 124.272 46.8809 118.701C50.6991 110.655 58.0618 106.87 69.9491 106.801C81.69 106.875 89.2691 110.841 93.1318 118.936C95.7727 124.464 103.123 129.132 112.484 129.132C119.42 129.132 125.841 126.531 129.64 122.073C136.385 114.184 139.701 99.0592 140 87.3805C139.033 48.1863 101.245 42.8452 70.0382 42.8452V42.8403ZM119.013 116.668C117.384 118.568 114.545 119.54 111.465 119.265C108.443 118.995 106.056 117.606 105.07 115.539C99.4064 103.674 86.9718 97.0858 69.9427 96.9778C52.6782 97.0809 40.5682 103.423 34.9236 115.318C33.9245 117.409 31.5 118.818 28.4327 119.093C25.34 119.353 22.4891 118.386 20.8727 116.482C16.45 111.253 13.02 99.0102 12.7145 87.5671C13.44 58.7163 35.1655 52.8156 69.9873 52.6634C110.587 52.8549 126.643 62.6436 127.26 87.3756C126.955 99.1083 123.48 111.425 119 116.673L119.013 116.668Z" fill="white"/>
<path d="M53.6518 81.0185L50.5018 78.5885L53.6518 76.1585C56.1336 74.244 56.14 71.1365 53.6518 69.217C51.1636 67.2976 47.1355 67.3025 44.6536 69.217L41.5036 71.647L38.3536 69.217C35.8655 67.2976 31.8373 67.3025 29.3555 69.217C26.8736 71.1316 26.8673 74.239 29.3555 76.1585L32.5055 78.5885L29.3555 81.0185C26.8736 82.933 26.8673 86.0405 29.3555 87.96C31.8436 89.8794 35.8718 89.8745 38.3536 87.96L41.5036 85.53L44.6536 87.96C47.1418 89.8794 51.17 89.8745 53.6518 87.96C56.1336 86.0454 56.14 82.938 53.6518 81.0185Z" fill="white"/>
<path d="M97.2364 74.1946C100.751 74.1946 103.6 71.9968 103.6 69.2856C103.6 66.5743 100.751 64.3765 97.2364 64.3765C93.7218 64.3765 90.8727 66.5743 90.8727 69.2856C90.8727 71.9968 93.7218 74.1946 97.2364 74.1946Z" fill="white"/>
<path d="M109.327 83.512C112.842 83.512 115.691 81.3142 115.691 78.6029C115.691 75.8917 112.842 73.6938 109.327 73.6938C105.813 73.6938 102.964 75.8917 102.964 78.6029C102.964 81.3142 105.813 83.512 109.327 83.512Z" fill="white"/>
<path d="M97.2364 92.8148C100.751 92.8148 103.6 90.6169 103.6 87.9057C103.6 85.1945 100.751 82.9966 97.2364 82.9966C93.7218 82.9966 90.8727 85.1945 90.8727 87.9057C90.8727 90.6169 93.7218 92.8148 97.2364 92.8148Z" fill="white"/>
<path d="M85.1455 83.512C88.66 83.512 91.5091 81.3142 91.5091 78.6029C91.5091 75.8917 88.66 73.6938 85.1455 73.6938C81.6309 73.6938 78.7818 75.8917 78.7818 78.6029C78.7818 81.3142 81.6309 83.512 85.1455 83.512Z" fill="white"/>
<path d="M19.1906 159.372L14.7106 167.372H10.2306L5.75062 159.372V171.852H-0.00937653V149.452H6.07062L12.4706 161.292L18.8706 149.452H24.9506V171.852H19.1906V159.372Z" fill="white"/>
<path d="M58.8831 155.532C58.8831 154.252 58.2431 153.612 56.9631 153.612H51.5231C50.2431 153.612 49.6031 154.252 49.6031 155.532V165.772C49.6031 167.052 50.2431 167.692 51.5231 167.692H56.9631C58.2431 167.692 58.8831 167.052 58.8831 165.772V155.532ZM64.6431 165.772C64.6431 168.012 64.1311 169.644 63.1071 170.668C62.1045 171.671 60.4831 172.172 58.2431 172.172H50.2431C48.0031 172.172 46.3711 171.671 45.3471 170.668C44.3445 169.644 43.8431 168.012 43.8431 165.772V155.532C43.8431 153.292 44.3445 151.671 45.3471 150.668C46.3711 149.644 48.0031 149.132 50.2431 149.132H58.2431C60.4831 149.132 62.1045 149.644 63.1071 150.668C64.1311 151.671 64.6431 153.292 64.6431 155.532V165.772Z" fill="white"/>
<path d="M96.0181 149.452C98.4288 149.452 100.253 150.082 101.49 151.34C102.749 152.578 103.378 154.402 103.378 156.812V164.492C103.378 166.903 102.749 168.738 101.49 169.996C100.253 171.234 98.4288 171.852 96.0181 171.852H83.5381V149.452H96.0181ZM97.6181 156.812C97.6181 154.892 96.6581 153.932 94.7381 153.932H89.2981V167.372H94.7381C96.6581 167.372 97.6181 166.412 97.6181 164.492V156.812Z" fill="white"/>
<path d="M140.009 171.852H122.249V149.452H140.009V153.932H128.009V158.252H137.449V162.732H128.009V167.372H140.009V171.852Z" fill="white"/>
</svg>
