<svg width="200" height="200" viewBox="0 0 200 200" fill="none" xmlns="http://www.w3.org/2000/svg">
<path d="M189.208 177.108L152.55 140.658C162.392 127.65 167.633 110 168.042 87.9166C167.167 37.1249 138.817 8.97493 88.1416 8.6416C36.8583 8.9666 8.33331 38.7416 8.33331 87.9083C8.33331 139.533 36.8833 167.175 88.2416 167.475C110.15 167.342 127.733 162.258 140.767 152.433L177.458 188.925C181.775 193.025 186.883 191.35 189.242 188.892C192.433 185.575 192.475 180.35 189.208 177.108ZM25 88.0583C25.8083 46.0999 46.4916 25.5666 88.1333 25.3083C129.375 25.5749 150.658 46.7333 151.375 87.9083C150.592 130.575 130.5 150.558 88.2416 150.808C45.9333 150.558 25.8333 130.625 25 88.0583Z" fill="white"/>
</svg>
