<svg width="24" height="24" viewBox="0 0 24 24" fill="none" xmlns="http://www.w3.org/2000/svg">
<g clip-path="url(#clip0_272_1402)">
<path d="M19.3332 14.667C18.5766 14.6672 17.8314 14.8514 17.1619 15.2039C16.4924 15.5563 15.9187 16.0663 15.4902 16.69L8.99023 13.755C9.44606 12.6356 9.44965 11.383 9.00023 10.261L15.4942 7.31197C16.1275 8.23071 17.0691 8.89204 18.1482 9.17597C19.2273 9.4599 20.3724 9.34764 21.3759 8.85953C22.3793 8.37143 23.1745 7.53982 23.6173 6.51559C24.06 5.49135 24.121 4.34234 23.7891 3.277C23.4572 2.21166 22.7545 1.30057 21.8083 0.709022C20.8622 0.117471 19.7354 -0.115352 18.6323 0.0527894C17.5292 0.220931 16.5229 0.7789 15.796 1.62547C15.069 2.47204 14.6696 3.55113 14.6702 4.66697C14.6702 4.93238 14.6926 5.19732 14.7372 5.45897L7.84623 8.58697C7.18192 7.9674 6.35123 7.55516 5.45605 7.40082C4.56087 7.24648 3.6401 7.35674 2.80667 7.71807C1.97324 8.07941 1.26337 8.67612 0.764126 9.43502C0.264882 10.1939 -0.00203692 11.082 -0.00389647 11.9904C-0.00575602 12.8988 0.257524 13.788 0.753657 14.5489C1.24979 15.3099 1.95721 15.9095 2.78915 16.2742C3.6211 16.639 4.54141 16.753 5.43721 16.6023C6.33302 16.4516 7.16539 16.0428 7.83223 15.426L14.7322 18.543C14.57 19.486 14.7017 20.4561 15.1093 21.3219C15.5168 22.1876 16.1807 22.9072 17.0109 23.383C17.8411 23.8589 18.7975 24.068 19.7505 23.9821C20.7036 23.8963 21.6072 23.5195 22.3389 22.9029C23.0707 22.2863 23.5952 21.4597 23.8415 20.535C24.0878 19.6104 24.0439 18.6324 23.7157 17.7335C23.3875 16.8346 22.791 16.0583 22.0069 15.5098C21.2229 14.9613 20.2901 14.6671 19.3332 14.667Z" fill="#FCFCFD"/>
</g>
<defs>
<clipPath id="clip0_272_1402">
<rect width="24" height="24" fill="white"/>
</clipPath>
</defs>
</svg>
