<svg width="200" height="200" viewBox="0 0 200 200" fill="none" xmlns="http://www.w3.org/2000/svg">
<g clip-path="url(#clip0_723_929)">
<path d="M190.297 95.7979C190.297 95.7979 190.297 95.7933 190.299 95.791L190.324 95.8025L190.377 95.8277L190.306 95.8002H190.304C190.304 95.8002 190.299 95.7979 190.297 95.7979Z" fill="#02E0A0"/>
<path d="M199.97 59.8621C199.97 58.0243 199.972 56.1887 199.972 54.3531C199.972 52.6713 199.975 50.9895 199.975 49.3077V38.0672C199.979 35.4813 199.986 32.8932 199.993 30.305C199.238 29.6052 199.766 28.5911 199.378 27.772C199.195 27.3865 198.945 26.8726 199.177 26.3632C199.172 26.1246 199.165 25.8859 199.16 25.6473C198.871 25.4982 198.874 25.255 198.943 24.9888C198.904 24.7135 198.865 24.4381 198.826 24.1628C198.17 23.1854 198.05 21.99 197.539 20.9506C197.156 20.1728 196.828 19.3697 196.472 18.5758C196.502 18.4955 196.534 18.4175 196.566 18.3372C196.534 18.2844 196.527 18.2317 196.545 18.172C196.412 18.0894 196.3 17.9976 196.201 17.8944C195.772 17.4539 195.619 16.8504 195.426 16.2722C195.392 16.2217 195.38 16.1667 195.396 16.1093C194.658 15.6757 194.385 14.9277 194.093 14.1889C193.908 14.1154 193.823 13.9709 193.8 13.7782C193.547 13.7116 193.373 13.5808 193.398 13.2871C193.304 13.1449 193.21 13.0026 193.118 12.8627C192.852 12.8053 192.703 12.647 192.687 12.3717C192.648 12.3235 192.632 12.2707 192.637 12.2087C191.621 11.5778 190.958 10.6279 190.331 9.64585C190.265 9.63667 190.205 9.60914 190.157 9.56096C189.278 9.24662 188.751 8.55599 188.276 7.808C187.971 7.75982 187.771 7.57167 187.631 7.30781C186.322 6.49558 184.996 5.70399 183.886 4.61184C183.828 4.62331 183.773 4.61413 183.725 4.57971C182.002 4.00381 180.507 2.92312 178.77 2.36099C177.621 1.98699 176.49 1.56022 175.313 1.27342C174.923 1.17705 174.462 1.16787 174.238 0.725045C174.038 0.713573 173.836 0.699806 173.637 0.686039C172.256 0.442828 170.797 0.676862 169.487 0C123.176 0 76.8675 0.00229445 30.5566 0.00458889C30.4626 0.229445 30.3112 0.376289 30.0474 0.378584C27.4163 0.385467 24.9366 1.13116 22.4707 1.94569C22.4111 1.96405 22.3285 1.91357 22.2551 1.89292C22.0991 1.92045 21.9408 1.94798 21.7826 1.97552C21.5692 2.41835 21.0944 2.40229 20.7251 2.56519C17.087 4.15754 13.676 6.09864 10.8317 8.9231C10.5059 9.24891 10.155 9.53572 9.69389 9.65274L9.68701 9.64585C8.65018 11.3782 7.11329 12.6952 5.85167 14.2416C5.77138 14.3908 5.6888 14.5399 5.60852 14.689C5.52594 14.8382 5.44565 14.985 5.36766 15.1365C4.77814 16.2676 3.90188 17.2519 3.64267 18.5506C3.61744 18.5942 3.61514 18.6401 3.63579 18.686C3.71378 19.0278 3.59679 19.2298 3.22748 19.2527C3.12655 19.2642 3.02562 19.2756 2.92698 19.2848C2.92469 19.3674 2.91551 19.45 2.90175 19.5303C2.80312 20.0856 2.43151 20.5445 2.30535 21.0906C2.34434 21.3934 2.1723 21.5632 1.92227 21.6825C1.90392 21.8684 1.88557 22.0542 1.86492 22.2378C1.89245 22.4374 1.84199 22.6026 1.65618 22.7035C1.63554 23.1349 1.58507 23.5525 1.2387 23.8668C1.21117 24.1674 1.22493 24.4817 1.14465 24.7685C-0.0711001 29.1326 -0.0802755 33.593 0.0619442 38.0672C0.0619442 41.814 0.0596504 45.5608 0.0596504 49.3054C0.0619442 50.9895 0.0619442 52.6713 0.0619442 54.3531C0.0619442 56.1887 0.0642381 58.0243 0.0642381 59.8621C0.0527688 60.3944 0.0275362 60.9267 0.0275362 61.459C0.032124 66.0296 0.0390056 70.5978 0.0458872 75.1684C0.701933 76.0196 0.300506 77.0705 0.582652 78.0112C0.981785 79.342 1.19511 80.7278 1.48644 82.0884C1.52314 82.2559 1.55755 82.4211 1.59195 82.5886C1.67224 82.5955 1.75482 82.6047 1.8351 82.6115C1.81446 82.7446 1.79381 82.8777 1.77546 83.0108C1.79611 83.0291 1.81675 83.0475 1.8351 83.0681C1.84887 83.0773 1.86034 83.0911 1.86951 83.1049C1.91309 83.1507 1.94292 83.2012 1.96815 83.254C1.98879 83.2976 2.00256 83.3435 2.01403 83.3894C2.03696 83.5041 2.03238 83.628 2.00026 83.7611C2.26176 83.8941 2.33058 84.1167 2.28929 84.392L2.34434 84.7293C3.1449 86.2184 3.89958 87.7373 4.75978 89.192C6.42743 92.0119 8.45291 94.5496 10.9578 96.6857C11.4395 97.1859 11.9212 97.6861 12.403 98.1862C12.7424 98.161 12.9604 98.2987 13.0223 98.6474C13.4765 98.8929 13.9536 99.104 14.2289 99.579C15.0592 99.8841 15.7291 100.451 16.4493 100.935L16.5136 100.981C16.8668 100.903 17.0824 101.052 17.1811 101.389C17.3462 101.472 17.5091 101.554 17.672 101.637C19.6974 102.592 21.7688 103.427 23.8631 104.207C24.0925 104.248 24.3219 104.287 24.5513 104.326C24.9917 104.218 25.3679 104.342 25.6867 104.657C25.9184 104.693 26.1478 104.728 26.3795 104.762C26.9759 104.576 27.4828 104.836 27.9898 105.095C28.2215 105.113 28.4531 105.129 28.6848 105.148L33.5088 105.499C35.1902 105.398 36.8716 105.398 38.553 105.499C40.083 105.34 41.6131 105.34 43.1431 105.499C44.8245 105.398 46.5059 105.398 48.185 105.499C49.715 105.34 51.245 105.34 52.775 105.499C54.4564 105.398 56.1378 105.398 57.8192 105.499C59.3469 105.34 60.877 105.34 62.407 105.499C64.0884 105.398 65.7698 105.398 67.4512 105.499C68.9789 105.34 70.5089 105.34 72.0389 105.499C73.7203 105.398 75.4017 105.398 77.0831 105.499C78.6131 105.34 80.1409 105.34 81.6709 105.499C82.1434 105.377 82.5173 105.416 82.4944 106.04C82.4416 107.545 82.6091 109.055 82.398 110.556C82.4485 111.086 82.4989 111.616 82.5494 112.146C82.4989 113.288 82.4485 114.433 82.4003 115.578C82.6045 117.113 82.4691 118.646 82.3911 120.181C82.4072 125.079 82.421 129.978 82.4393 134.877C82.4416 135.331 82.4645 135.785 82.4783 136.242C82.4462 138.995 82.4164 141.749 82.3866 144.502C82.4187 144.901 82.6435 145.44 82.2397 145.635C81.836 145.833 81.5447 145.316 81.2419 145.055C79.861 143.853 78.4824 142.646 77.1038 141.441C75.5784 140.675 74.0552 139.908 72.5298 139.142C72.3692 139.108 72.2064 139.073 72.0458 139.039C71.5366 139.144 71.0916 138.993 70.6878 138.688C70.4493 138.665 70.213 138.644 69.9767 138.621C69.3344 138.624 68.6922 138.663 68.0545 138.621C64.7719 138.412 61.8174 139.466 58.9662 140.939C58.762 141.065 58.5601 141.191 58.356 141.317C58.2298 141.528 58.0693 141.694 57.8032 141.705C57.6977 141.785 57.5921 141.863 57.4866 141.944C57.3054 142.288 57.0485 142.54 56.6539 142.62L56.6287 142.646C56.4819 143.095 56.1011 143.3 55.7318 143.522C55.6423 143.612 55.5506 143.701 55.4588 143.791C54.211 145.502 52.9333 147.189 52.2199 149.229C52.0249 149.788 52.08 150.458 51.5753 150.903C51.557 151.059 51.5409 151.218 51.5226 151.376C51.4056 152.982 51.2886 154.591 51.1716 156.197C51.2037 156.52 51.2381 156.844 51.2702 157.167C51.6602 157.468 51.5363 157.881 51.5157 158.273C51.5271 158.425 51.5386 158.576 51.5501 158.728C52.0502 160.024 52.5502 161.32 53.0503 162.617L53.0572 162.699C53.3072 162.83 53.4517 163.025 53.4402 163.316L53.4517 163.33C53.8852 163.587 54.0366 164.007 54.1055 164.473L54.1307 164.5C54.4404 164.606 54.6262 164.801 54.5918 165.152L54.5986 165.161C55.0712 165.531 55.507 165.934 55.8213 166.455C56.498 166.944 56.8948 167.678 57.4155 168.302C59.0809 170.002 60.6957 171.748 62.1409 173.644C62.2441 173.763 62.3473 173.88 62.4506 173.999C62.7327 174.224 63.0148 174.447 63.297 174.669C63.3337 174.718 63.3819 174.745 63.4415 174.754C63.6204 174.823 63.7282 174.949 63.7512 175.144C64.5059 176.099 65.2582 177.056 66.0129 178.01C66.1024 178.1 66.1941 178.189 66.2859 178.278C66.7401 178.657 67.3709 178.884 67.4145 179.612L67.4328 179.634C68.7403 180.628 69.6854 181.959 70.7337 183.193C71.0984 183.322 71.3095 183.565 71.298 183.971C71.61 184.132 71.9013 184.317 72.0252 184.675C73.0046 185.54 73.7777 186.584 74.5645 187.619C74.9544 187.835 75.2893 188.101 75.404 188.562C75.5187 188.682 75.6311 188.803 75.7435 188.922C77.0602 190.065 78.1245 191.442 79.3334 192.688C79.5743 192.756 79.7142 192.935 79.8312 193.142C80.1776 193.114 80.3817 193.27 80.4436 193.612C80.5423 193.649 80.6409 193.686 80.7373 193.722C80.7923 193.72 80.8428 193.725 80.8887 193.736C80.907 193.741 80.9254 193.745 80.9437 193.752C80.9988 193.771 81.0423 193.8 81.0813 193.835C81.0951 193.846 81.1089 193.858 81.118 193.872C81.1479 193.901 81.1708 193.934 81.1937 193.97C81.2098 193.995 81.2236 194.021 81.2373 194.048C81.2534 194.08 81.2694 194.115 81.2855 194.149C81.3084 194.2 81.3291 194.255 81.352 194.305C81.4529 194.388 81.5562 194.473 81.6571 194.558C83.6918 195.647 85.5773 197.017 87.7771 197.795C89.0961 198.261 90.4082 198.738 91.7249 199.213C91.8855 199.238 92.046 199.266 92.2066 199.293C92.7158 199.183 93.1608 199.339 93.5737 199.621C93.8077 199.644 94.0394 199.665 94.2734 199.686C94.4225 199.665 94.5693 199.644 94.7161 199.635C94.8514 199.628 94.9822 199.628 95.1129 199.649C95.1772 199.66 95.2391 199.674 95.301 199.697C95.3102 199.699 95.324 199.704 95.3354 199.709C95.3584 199.718 95.3836 199.727 95.4065 199.738C95.4478 199.757 95.4891 199.78 95.5304 199.807C95.5648 199.83 95.5992 199.855 95.6336 199.883C95.6657 199.911 95.7002 199.94 95.7323 199.975C109.766 199.984 123.802 199.991 137.836 200C137.935 199.899 138.04 199.89 138.15 199.982C138.242 199.975 138.334 199.968 138.428 199.963C138.703 199.589 139.079 199.608 139.474 199.697C139.708 199.67 139.942 199.642 140.174 199.612C140.582 199.307 141.036 199.19 141.539 199.268C141.697 199.231 141.855 199.197 142.013 199.163C142.559 198.782 143.197 198.655 143.83 198.52C143.984 198.486 144.135 198.454 144.287 198.419C146.099 197.467 147.957 196.607 149.654 195.443C153.455 192.839 156.098 189.29 158.082 185.194C158.261 184.827 158.419 184.448 158.589 184.074H158.587C158.573 184.031 158.561 183.989 158.557 183.948C158.543 183.879 158.541 183.815 158.552 183.755C158.552 183.744 158.554 183.735 158.557 183.723C158.559 183.703 158.566 183.682 158.573 183.661C158.575 183.654 158.577 183.65 158.58 183.643C158.589 183.62 158.598 183.597 158.612 183.576C158.626 183.553 158.639 183.53 158.658 183.51C158.676 183.487 158.697 183.464 158.72 183.443C158.763 183.402 158.816 183.365 158.878 183.333C158.908 183.315 158.94 183.301 158.974 183.285C158.993 183.159 159.011 183.035 159.029 182.909C159.002 182.81 158.988 182.718 159.002 182.64C159.004 182.62 159.009 182.601 159.013 182.585C159.013 182.581 159.013 182.578 159.013 182.576C159.015 182.564 159.02 182.555 159.029 182.544C159.036 182.523 159.048 182.505 159.061 182.489C159.075 182.47 159.091 182.454 159.11 182.441C159.114 182.438 159.119 182.434 159.123 182.429C159.135 182.418 159.149 182.411 159.162 182.402C159.204 182.379 159.252 182.36 159.309 182.347C159.346 182.191 159.38 182.035 159.417 181.878C158.983 181.415 159.305 181.179 159.692 180.965C159.759 180.814 159.823 180.662 159.889 180.513C159.883 180.357 159.878 180.204 159.871 180.05C159.853 180.031 159.837 180.011 159.821 179.992C159.793 179.96 159.768 179.928 159.75 179.898C159.743 179.887 159.736 179.875 159.729 179.864C159.717 179.846 159.708 179.827 159.701 179.809C159.692 179.791 159.685 179.772 159.681 179.754C159.676 179.735 159.672 179.719 159.669 179.703C159.667 179.685 159.665 179.669 159.665 179.653C159.665 179.632 159.667 179.612 159.672 179.591C159.674 179.575 159.678 179.559 159.685 179.543C159.685 179.538 159.688 179.534 159.69 179.531C159.697 179.517 159.704 179.504 159.711 179.492C159.724 179.467 159.743 179.442 159.761 179.419C159.77 179.407 159.782 179.394 159.793 179.382C159.802 179.371 159.816 179.359 159.828 179.348H159.83C159.873 179.306 159.924 179.27 159.979 179.233C160.022 179.205 160.066 179.18 160.112 179.153C160.149 179.075 160.185 178.994 160.22 178.916C160.048 178.363 160.369 177.845 160.337 177.303C160.261 177.241 160.206 177.182 160.169 177.122C160.151 177.092 160.137 177.065 160.128 177.037C160.123 177.023 160.119 177.01 160.119 176.996C160.112 176.968 160.112 176.941 160.117 176.916C160.119 176.904 160.121 176.893 160.123 176.881C160.126 176.87 160.128 176.858 160.135 176.847C160.144 176.824 160.156 176.803 160.174 176.78C160.181 176.771 160.188 176.76 160.201 176.748C160.208 176.737 160.22 176.725 160.234 176.714C160.261 176.686 160.293 176.661 160.33 176.638C160.348 176.622 160.369 176.61 160.392 176.597H160.394C160.461 176.454 160.527 176.31 160.594 176.168C160.571 175.778 160.545 175.39 160.523 175C160.376 174.734 160.302 174.467 160.302 174.201C160.302 174.135 160.307 174.068 160.316 174.002C160.325 173.935 160.339 173.869 160.357 173.802C160.376 173.733 160.399 173.667 160.426 173.6C160.44 173.566 160.454 173.531 160.47 173.499C160.486 173.465 160.502 173.433 160.52 173.398V173.403C160.52 173.403 160.523 173.4 160.523 173.398L160.628 173.417C160.591 173.256 160.552 173.095 160.516 172.935C160.222 171.868 160.215 170.803 160.52 169.739C160.52 169.431 160.518 169.124 160.518 168.816C160.555 168.665 160.591 168.513 160.628 168.362C160.626 166.829 160.626 165.294 160.626 163.762C160.626 162.084 160.626 160.405 160.623 158.728C160.605 156.194 160.523 153.664 160.27 151.14C160.236 150.828 160.201 150.518 160.169 150.206C159.571 149.095 159.568 147.801 159.071 146.652C158.892 146.241 158.706 145.828 158.515 145.422C158.304 145.319 158.272 145.135 158.291 144.929C158.286 144.922 158.281 144.915 158.277 144.908C158.215 144.823 158.155 144.741 158.098 144.656C158.098 144.656 158.13 144.61 158.132 144.61C157.715 143.121 156.793 141.905 155.981 140.629C155.74 140.248 155.499 139.863 155.26 139.482C155.008 139.413 154.896 139.227 154.831 138.993C154.554 138.784 154.281 138.571 154.164 138.222C152.639 136.859 151.113 135.499 149.585 134.138C147.525 132.897 145.367 131.853 143.16 130.903C143.002 130.868 142.844 130.832 142.685 130.797C142.3 130.926 142.02 130.738 141.766 130.481C141.61 130.458 141.456 130.435 141.302 130.412C140.077 130.253 138.857 130.084 137.669 129.735C136.737 129.753 135.808 129.804 134.884 129.643C133.196 129.797 131.507 129.799 129.821 129.643C128.298 129.783 126.775 129.783 125.252 129.641C123.564 129.806 121.875 129.785 120.187 129.655C117.572 129.985 117.581 129.985 117.568 127.456C117.549 124.189 117.694 120.92 117.476 117.655C117.529 115.284 117.581 112.914 117.636 110.544C117.49 109.016 117.563 107.488 117.636 105.96C117.641 105.882 117.643 105.806 117.648 105.728C118.446 105.051 119.341 105.483 120.199 105.51C121.88 105.409 123.561 105.409 125.243 105.51C126.771 105.327 128.301 105.347 129.831 105.499C131.512 105.398 133.193 105.398 134.875 105.499C136.405 105.34 137.933 105.34 139.463 105.499C141.144 105.398 142.825 105.398 144.507 105.499C146.037 105.34 147.564 105.34 149.094 105.499C150.776 105.398 152.457 105.398 154.139 105.499C155.669 105.347 157.199 105.327 158.729 105.51C160.41 105.409 162.092 105.409 163.771 105.51C165.303 105.333 166.835 105.34 168.368 105.483C168.684 105.343 169.008 105.32 169.34 105.421C170.038 104.943 170.822 105.148 171.577 105.134C171.735 105.12 171.891 105.106 172.049 105.095C173.795 104.441 175.674 104.301 177.426 103.633C179.493 102.846 181.534 102.027 183.427 100.868C183.578 100.777 183.787 100.779 183.968 100.738C184.977 100.038 185.987 99.3381 186.998 98.6382C187.439 97.7342 188.478 97.4612 189.051 96.6994C189.038 96.6742 189.022 96.6513 189.008 96.6283C189.024 96.6513 189.04 96.6742 189.054 96.6994C189.083 96.688 189.113 96.6742 189.143 96.6604C189.581 96.4425 189.788 95.9101 190.297 95.7908C190.366 95.4926 190.536 95.2815 190.838 95.192C191.033 94.7882 191.325 94.4738 191.712 94.249C192.412 93.1637 193.233 92.1771 194.123 91.2478C194.151 91.179 194.18 91.1102 194.208 91.0413C194.203 90.8165 194.316 90.6742 194.52 90.5985C194.513 90.275 194.733 90.0914 194.951 89.9056C194.931 89.5981 195.121 89.4329 195.357 89.2976L195.366 89.2104C195.362 88.9029 195.548 88.7262 195.791 88.5863C195.759 88.2719 195.99 88.0769 196.135 87.8429C196.091 87.5377 196.256 87.361 196.502 87.2303C196.467 86.9893 196.513 86.7874 196.766 86.6819C196.773 86.6406 196.777 86.6016 196.784 86.5603C196.793 86.4869 196.802 86.4157 196.818 86.3469C196.823 86.3217 196.83 86.2987 196.837 86.2735C196.839 86.2597 196.844 86.2437 196.851 86.2299C196.857 86.2024 196.869 86.1771 196.88 86.1519C196.885 86.1381 196.894 86.122 196.903 86.106C196.912 86.0922 196.922 86.0762 196.931 86.0624C196.94 86.0463 196.954 86.0303 196.965 86.0165C196.977 86.005 196.986 85.9936 196.997 85.9844C197.009 85.9729 197.023 85.9614 197.036 85.95C197.08 85.9155 197.133 85.8834 197.197 85.8582C197.169 85.3006 197.507 84.8739 197.711 84.4012C197.663 84.0915 197.8 83.8918 198.071 83.7634C198.092 83.5913 198.112 83.4215 198.135 83.2494C198.089 83.0383 198.137 82.8708 198.342 82.7699C198.337 82.6253 198.33 82.4785 198.323 82.3339C198.383 82.2605 198.445 82.1848 198.504 82.1114C199.186 79.5393 199.839 76.9328 199.917 74.2827C200.062 69.4804 199.966 64.669 199.968 59.8621H199.97ZM120.222 141.462C121.889 141.329 123.557 141.32 125.227 141.466C126.768 141.313 128.31 141.313 129.851 141.466C131.519 141.322 133.187 141.326 134.856 141.464C137.744 141.31 140.396 141.937 142.676 143.811C142.906 143.96 143.137 144.112 143.367 144.261C144.039 144.383 144.3 145.101 144.904 145.319C145.062 145.585 145.222 145.851 145.381 146.117C145.571 146.165 145.67 146.292 145.693 146.482C146.018 146.65 146.312 146.842 146.285 147.276L146.319 147.31C146.645 147.404 146.798 147.615 146.755 147.96L146.787 148.01C147.603 148.958 148.007 150.139 148.287 151.296C148.51 152.214 148.879 153.154 148.76 154.148C148.888 155.669 148.858 157.193 148.78 158.714V173.41C148.778 174.015 148.776 174.623 148.773 175.231C148.799 175.617 148.824 176 148.849 176.386H148.851C148.255 179.235 147.191 181.888 145.144 184.003C142.607 186.63 139.518 188.158 135.795 188.213C135.487 188.218 135.178 188.223 134.87 188.227H100.944C100.175 188.227 99.4093 188.225 98.6409 188.225C96.7897 188.294 95.0166 188.023 93.326 187.408C92.6356 187.156 91.9589 186.846 91.2959 186.479C90.7156 186.263 90.1696 186.004 89.6489 185.703C89.4402 185.584 89.236 185.458 89.0365 185.325C88.135 184.728 87.3184 184.015 86.5614 183.214C86.4513 183.099 86.3389 182.984 86.2265 182.872C85.7585 182.558 85.3479 182.193 85.1392 181.647L85.1231 181.631C84.7125 181.488 84.5107 181.169 84.3776 180.784C83.8133 180.431 83.3592 179.983 83.1114 179.348C82.7673 179.146 82.499 178.875 82.3315 178.508C81.7145 178.1 81.2511 177.56 80.9208 176.9C80.8611 176.867 80.8038 176.831 80.7487 176.792C80.6317 176.714 80.5262 176.629 80.4276 176.535C80.3794 176.489 80.3312 176.438 80.2854 176.388C80.1042 176.184 79.955 175.954 79.8312 175.7C79.767 175.7 79.705 175.697 79.6431 175.683C79.5995 175.638 79.5605 175.594 79.5192 175.55C79.4779 175.507 79.4343 175.463 79.3931 175.417H79.3953C79.3885 175.346 79.3862 175.273 79.3885 175.202C79.3288 175.218 79.2669 175.222 79.2027 175.22C79.1224 175.142 79.0467 175.064 78.9664 174.986C78.9641 174.981 78.9595 174.977 78.9572 174.974C78.8769 174.876 78.7989 174.773 78.7187 174.672C78.5994 174.545 78.4801 174.419 78.3608 174.291H78.3585C78.331 174.286 78.3081 174.282 78.2828 174.275C78.2599 174.268 78.2369 174.261 78.2163 174.252C78.1612 174.227 78.1154 174.192 78.0764 174.148C78.0488 174.116 78.0259 174.082 78.0053 174.041C77.9961 174.022 77.9869 174.002 77.9777 173.979C77.9732 173.91 77.9456 173.852 77.8975 173.807C77.5144 172.912 76.5785 172.441 76.1725 171.563C75.7756 171.407 75.5852 171.067 75.404 170.716C74.8695 170.324 74.3901 169.881 74.1263 169.252C72.1765 167.426 70.5364 165.317 68.738 163.355C67.1163 161.586 65.5243 159.783 63.9851 157.941C61.7142 155.217 63.1616 151.016 66.5336 150.438C66.7676 150.314 67.0108 150.27 67.27 150.35C68.6922 150.045 69.8368 150.61 70.869 151.509C75.2985 155.366 79.7348 159.214 84.1414 163.096C84.9236 163.784 85.8044 164.262 86.7082 164.73C87.7129 164.842 88.7176 164.886 89.7246 164.75C90.2086 164.429 90.7454 164.23 91.3051 164.087C91.4565 163.915 91.5987 163.727 91.8625 163.732C92.0437 163.417 92.2846 163.172 92.6287 163.036C92.6562 162.708 92.8558 162.518 93.1402 162.394H93.1425C93.1654 162.208 93.1104 161.979 93.3971 161.942C93.5623 161.488 93.7274 161.031 93.8926 160.575C93.8261 160.38 93.849 160.217 94.0555 160.12C94.1105 159.661 94.1656 159.2 94.2183 158.739C94.0853 157.197 94.0715 155.658 94.2206 154.116C94.0807 152.445 94.0807 150.775 94.2183 149.105C94.0738 147.563 94.0761 146.023 94.216 144.481C94.0784 142.811 94.0784 141.141 94.216 139.47C94.1702 138.394 94.122 137.318 94.0738 136.242C94.122 135.781 94.1702 135.32 94.216 134.858C94.0784 133.183 94.0807 131.508 94.2137 129.836C94.0738 128.294 94.0715 126.754 94.2091 125.215C94.0761 123.542 94.0784 121.872 94.2091 120.201C94.0738 118.66 94.0738 117.12 94.2068 115.58C94.1633 114.438 94.1174 113.297 94.0738 112.155C94.1174 111.625 94.1633 111.097 94.2068 110.567C94.0761 109.028 94.0761 107.486 94.2023 105.946C94.1541 104.563 93.8742 103.163 94.5028 101.83C94.762 99.8887 96.8196 97.9729 99.0331 97.6103C102.13 97.101 105.36 99.3702 105.887 102.433C105.903 102.537 105.844 102.654 105.821 102.764C105.99 103.821 105.961 104.884 105.846 105.946C105.977 107.479 105.968 109.014 105.848 110.549C105.846 110.62 105.846 110.691 105.846 110.762C105.963 112.368 105.972 113.974 105.839 115.578C105.885 116.273 105.931 116.966 105.974 117.659C105.926 118.504 105.876 119.348 105.828 120.192C105.984 121.865 105.961 123.54 105.837 125.215C105.968 126.754 105.988 128.296 105.823 129.838C105.984 131.508 105.956 133.183 105.834 134.856C105.942 137.036 106.585 138.947 108.436 140.315C109.094 140.801 109.922 140.879 110.562 141.363C112.246 141.393 113.927 141.423 115.609 141.453C117.148 141.32 118.689 141.301 120.228 141.462H120.222ZM188.554 64.2468C188.554 64.2468 188.551 64.2674 188.551 64.2789C188.551 64.2973 188.549 64.3133 188.544 64.3294C188.54 64.3592 188.533 64.389 188.524 64.4166C188.515 64.4464 188.503 64.4762 188.489 64.5061C188.478 64.5336 188.462 64.5634 188.444 64.5933C188.425 64.6231 188.407 64.6506 188.386 64.6804C188.37 67.3236 188.359 69.9668 188.333 72.61C188.329 73.023 188.274 73.4361 188.242 73.8468C188.31 74.5374 188.432 75.2349 187.9 75.82C187.895 76.0012 187.893 76.1802 187.888 76.3592C187.755 78.2773 187.014 80.0028 186.193 81.7029C186.097 81.9003 186.044 82.1228 185.973 82.3316C184.546 84.5939 183.019 86.7691 180.952 88.5106C177.009 91.8352 172.531 93.7671 167.31 93.7626C166.126 93.7603 164.945 93.7304 163.764 93.7144H158.743C157.203 93.8061 155.666 93.8061 154.13 93.7144H149.111C147.571 93.8061 146.034 93.8061 144.498 93.7144C142.823 93.7121 141.149 93.7121 139.476 93.7121H134.866C133.193 93.7121 131.519 93.7121 129.844 93.7144C128.307 93.8061 126.771 93.8061 125.231 93.7144H120.212C118.676 93.8061 117.139 93.8061 115.602 93.7144C115.304 93.7052 115.003 93.696 114.705 93.6891C114.225 93.6111 114.086 93.1637 113.842 92.8517C111.459 89.784 108.406 87.7305 104.658 86.7048C104.408 86.636 104.123 86.6131 103.97 86.3515C103.802 86.3262 103.637 86.3033 103.469 86.2804C102.577 86.4983 101.77 86.1152 100.935 85.9293C100.159 85.9293 99.3864 85.9362 98.6134 85.9385L98.6111 85.9408C97.6155 86.48 96.4732 86.3836 95.4111 86.6566C93.9637 87.0284 92.6952 87.797 91.2913 88.2329C91.2478 88.3018 91.1881 88.3293 91.1078 88.3155C90.9312 88.74 90.5252 88.8295 90.1536 88.9717C90.1306 89.0314 90.0894 89.0521 90.0297 89.0314C89.7568 89.3848 89.4998 89.7587 88.9975 89.8115C88.8805 89.9125 88.7635 90.0134 88.6465 90.1144C88.3965 90.5205 88.1143 90.8922 87.6189 91.0207L87.6005 91.0367C87.339 91.5232 87.0477 91.9775 86.4788 92.1564C86.1829 92.5534 85.887 92.9503 85.5911 93.3496C85.6071 93.7098 85.4053 93.7832 85.1002 93.7144H81.68C80.1431 93.8061 78.6063 93.8061 77.0717 93.7144H72.0504C70.5135 93.8061 68.9766 93.8061 67.4374 93.7144C65.7652 93.7121 64.0907 93.7121 62.4161 93.7121H57.8078C56.1332 93.7121 54.461 93.7121 52.7865 93.7144C51.2496 93.8061 49.7104 93.8061 48.1735 93.7144H43.1545C41.6176 93.8061 40.0785 93.8061 38.5416 93.7144C36.867 93.7144 35.1925 93.7121 33.518 93.7121C28.2444 93.9989 23.6865 92.1748 19.6057 88.9626C19.5552 88.9236 19.5483 88.8272 19.5208 88.7561C18.4129 88.0287 17.4816 87.1247 16.7659 86.0073C16.2704 85.771 16.0296 85.3373 15.8644 84.844C14.9996 84.197 14.7473 83.1094 14.0591 82.3339C13.6026 81.2005 13.1576 80.0601 12.6782 78.9358C12.5406 78.6123 12.4374 78.314 12.5383 77.9699C12.4924 77.745 12.4442 77.5202 12.3961 77.2953C11.6827 75.5905 11.6322 73.8101 11.7698 72.0043C11.7331 71.0911 11.6987 70.1802 11.662 69.267C11.4349 69.033 11.4349 68.799 11.662 68.5649C11.6964 68.1864 11.7331 67.8101 11.7675 67.4338C11.6551 65.7451 11.646 64.0586 11.7653 62.3722C11.7194 61.5348 11.6735 60.6996 11.6253 59.8644C11.6758 59.1761 11.7263 58.4877 11.7767 57.7994C11.7308 56.6522 11.6873 55.5027 11.6414 54.3554C11.6873 53.8139 11.7331 53.2747 11.779 52.7356C11.7377 51.5929 11.6941 50.4503 11.6529 49.3077C11.6964 48.9268 11.7423 48.5459 11.7859 48.165C11.6781 46.4786 11.6827 44.7899 11.7813 43.1035C11.6758 41.5777 11.6781 40.0541 11.779 38.5306C11.7377 38.3769 11.6987 38.2232 11.6574 38.0695C11.701 36.5368 11.7446 35.0018 11.7882 33.4691C11.6896 32.8611 11.7079 32.253 11.8134 31.6496C11.7263 31.1792 11.584 30.6974 12.1093 30.3693L12.1644 29.1234C12.1483 27.7697 12.6966 26.5536 13.1897 25.3513C14.0087 23.3552 14.995 21.4347 16.3025 19.7024C16.8026 19.7299 16.876 19.1976 17.2132 19.0118C17.727 18.3051 18.3509 17.7062 19.0322 17.1625C21.7092 14.2669 25.2142 13.0095 28.9257 12.1606C29.4234 12.1353 29.9235 12.1101 30.4213 12.0871C30.8961 11.4539 31.5407 11.7361 32.1371 11.7705C32.5913 11.6764 33.0455 11.665 33.4996 11.7544C35.1879 11.6512 36.8762 11.6558 38.5622 11.7522C40.0853 11.6535 41.6085 11.6558 43.1316 11.7522C44.8199 11.6535 46.5082 11.6535 48.1965 11.7522C49.7196 11.6535 51.2427 11.6558 52.7635 11.7522C54.4518 11.6535 56.1401 11.6535 57.8284 11.7522C59.3515 11.6535 60.8747 11.6558 62.3978 11.7522C64.0838 11.6535 65.7721 11.6535 67.4604 11.7522C68.9835 11.6535 70.5066 11.6558 72.0297 11.7522C73.718 11.6535 75.404 11.6535 77.0923 11.7522C78.6154 11.6535 80.1386 11.6558 81.6617 11.7522C83.35 11.6535 85.0383 11.6535 86.7243 11.7522C88.2474 11.6535 89.7705 11.6558 91.2936 11.7522C92.9819 11.6535 94.6702 11.6535 96.3562 11.7522C97.8793 11.6535 99.4025 11.6558 100.926 11.7522C102.614 11.6535 104.302 11.6535 105.99 11.7522C107.514 11.6535 109.034 11.6558 110.558 11.7522C112.246 11.6535 113.934 11.6535 115.622 11.7522C117.146 11.6535 118.669 11.6558 120.192 11.7522C121.878 11.6535 123.566 11.6535 125.254 11.7522C126.777 11.6535 128.301 11.6558 129.824 11.7522C131.51 11.6535 133.198 11.6535 134.886 11.7522C136.409 11.6535 137.933 11.6558 139.456 11.7522C141.144 11.6535 142.83 11.6535 144.518 11.7522C146.041 11.6535 147.564 11.6558 149.088 11.7522C150.776 11.6535 152.464 11.6535 154.15 11.7522C155.673 11.6535 157.196 11.6558 158.72 11.7522C160.408 11.6535 162.096 11.6535 163.784 11.7522C165.232 11.6581 166.679 11.6443 168.127 11.7728C170.921 11.8898 173.586 12.5437 176.086 13.7942C176.74 14.1223 177.557 14.2164 177.988 14.9277C180.004 15.9808 181.743 17.3552 183.023 19.2642C183.023 19.2665 183.025 19.2665 183.025 19.2688H183.028C183.11 19.2619 183.191 19.255 183.273 19.2481C184.078 20.2623 184.883 21.2764 185.468 22.4282C185.565 22.6187 185.656 22.8137 185.741 23.0133C185.824 23.2129 185.902 23.4171 185.971 23.6259C186.303 24.0251 186.563 24.4519 186.767 24.8993C187.108 25.6473 187.303 26.4527 187.448 27.2787C187.473 27.4485 187.501 27.6205 187.526 27.7926C187.93 28.162 188.109 28.5865 187.854 29.1188C187.884 29.4905 187.916 29.8622 187.948 30.2362C188.501 30.6194 188.258 31.1517 188.21 31.6473C188.352 32.253 188.329 32.8657 188.26 33.4783C188.301 35.0087 188.345 36.5391 188.386 38.0695C188.26 41.8163 188.301 45.5631 188.379 49.3077C188.283 50.9918 188.274 52.6736 188.402 54.3554C188.322 56.191 188.246 58.0266 188.414 59.8644C188.269 61.1585 188.347 62.4525 188.388 63.7489C188.402 63.7673 188.416 63.7879 188.427 63.8063C188.439 63.8269 188.45 63.8453 188.462 63.8636C188.483 63.9026 188.501 63.9416 188.515 63.9806C188.521 64.0013 188.526 64.0196 188.533 64.0403C188.544 64.0793 188.551 64.1183 188.554 64.1573C188.556 64.1848 188.558 64.217 188.554 64.2468Z" fill="white"/>
<path d="M3.22748 19.2528C3.19306 18.9407 3.36515 18.7778 3.63589 18.686C3.7139 19.0279 3.59689 19.2298 3.22748 19.2528Z" fill="#70FEA3"/>
<path d="M70.7291 183.196L70.7337 183.193V183.196L70.736 183.198H70.7337L70.7314 183.2L70.6603 183.244L70.7291 183.196Z" fill="#00BA9B"/>
<path d="M84.3845 180.789C84.3845 180.789 84.3799 180.787 84.3776 180.784C84.3776 180.782 84.3753 180.78 84.3753 180.777L84.3845 180.789Z" fill="#00BA9B"/>
<path d="M79.5169 175.551C79.4756 175.507 79.432 175.463 79.3907 175.417H79.393C79.4343 175.463 79.4756 175.507 79.5169 175.551Z" fill="#00BA9B"/>
<path d="M158.589 184.072L158.587 184.074C158.573 184.031 158.561 183.99 158.557 183.948C158.564 183.987 158.573 184.029 158.589 184.072Z" fill="#00BA9B"/>
<path d="M160.394 176.597C160.371 176.61 160.351 176.624 160.332 176.638C160.351 176.622 160.371 176.61 160.394 176.597Z" fill="#00BA9B"/>
<path d="M160.523 173.398V173.403C160.506 173.435 160.49 173.467 160.472 173.499C160.488 173.465 160.504 173.433 160.523 173.398Z" fill="#00BA9B"/>
<path d="M11.6621 69.267C11.4349 69.033 11.4349 68.799 11.6621 68.5649C11.7653 68.799 11.7653 69.033 11.6621 69.267Z" fill="#50F5A3"/>
<path d="M188.554 64.1574C188.556 64.185 188.558 64.2171 188.554 64.2469C188.554 64.2561 188.551 64.2676 188.551 64.279C188.551 64.2974 188.549 64.3135 188.545 64.3295C188.54 64.3593 188.533 64.3892 188.524 64.4167C188.515 64.4465 188.503 64.4764 188.489 64.5062C188.476 64.536 188.46 64.5658 188.444 64.5934C188.425 64.6232 188.407 64.6507 188.386 64.6806C188.274 64.3685 188.274 64.0588 188.386 63.749C188.4 63.7674 188.414 63.788 188.427 63.8064C188.439 63.827 188.45 63.8454 188.462 63.8637C188.483 63.9028 188.501 63.9418 188.515 63.9808C188.522 64.0014 188.526 64.0198 188.533 64.0404C188.542 64.0794 188.549 64.1184 188.554 64.1574Z" fill="#50F5A3"/>
<path d="M55.8213 166.455C55.8213 166.455 55.8236 166.458 55.8236 166.46L55.8144 166.451C55.8144 166.451 55.819 166.453 55.8213 166.455Z" fill="#01CB9E"/>
<path d="M92.6401 163.032L92.6264 163.043V163.036C92.6264 163.036 92.6355 163.034 92.6401 163.032Z" fill="#01CB9E"/>
<path d="M160.518 172.935C160.224 171.868 160.217 170.803 160.523 169.739C160.619 170.803 160.605 171.87 160.518 172.935Z" fill="#01CB9E"/>
<path d="M159.419 181.879C158.986 181.415 159.307 181.179 159.695 180.965C159.832 181.339 159.683 181.626 159.419 181.879Z" fill="#20ECA1"/>
<path d="M160.114 179.153C160.103 179.449 160.091 179.743 160.082 180.038C160.011 180.032 159.942 180.034 159.873 180.05C159.855 180.032 159.839 180.011 159.823 179.993C159.795 179.96 159.77 179.928 159.752 179.899C159.745 179.887 159.738 179.876 159.731 179.864C159.72 179.846 159.711 179.827 159.704 179.809C159.694 179.791 159.688 179.772 159.683 179.754C159.678 179.736 159.674 179.72 159.672 179.704C159.669 179.685 159.667 179.669 159.667 179.653C159.667 179.632 159.669 179.612 159.674 179.591C159.676 179.575 159.681 179.559 159.688 179.543C159.688 179.538 159.69 179.534 159.692 179.531C159.699 179.518 159.706 179.504 159.713 179.492C159.727 179.467 159.745 179.442 159.763 179.419C159.772 179.408 159.784 179.394 159.795 179.382C159.807 179.371 159.818 179.362 159.83 179.348H159.832C159.876 179.309 159.926 179.272 159.981 179.233C160.025 179.206 160.068 179.18 160.114 179.153Z" fill="#20ECA1"/>
<path d="M160.525 175C160.378 174.734 160.305 174.468 160.305 174.201C160.305 174.135 160.309 174.068 160.318 174.002C160.328 173.935 160.341 173.869 160.36 173.802C160.38 173.733 160.403 173.667 160.429 173.6C160.442 173.566 160.456 173.532 160.472 173.499C160.488 173.465 160.504 173.433 160.523 173.398V173.403C160.619 173.933 160.614 174.468 160.525 175Z" fill="#01CB9E"/>
<path d="M158.589 184.072L158.587 184.074C158.573 184.031 158.561 183.99 158.557 183.948C158.543 183.879 158.541 183.815 158.552 183.756C158.552 183.744 158.554 183.735 158.557 183.723C158.559 183.703 158.566 183.682 158.573 183.661C158.575 183.655 158.577 183.65 158.58 183.643C158.589 183.62 158.598 183.597 158.612 183.577C158.626 183.554 158.639 183.531 158.658 183.51C158.676 183.487 158.697 183.464 158.72 183.443C158.763 183.402 158.816 183.365 158.878 183.333C158.908 183.315 158.94 183.301 158.974 183.285C159.011 183.629 158.887 183.893 158.589 184.072Z" fill="#20ECA1"/>
<path d="M159.328 182.771C159.229 182.817 159.128 182.863 159.029 182.909C159.002 182.81 158.988 182.718 159.002 182.64C159.004 182.62 159.009 182.601 159.013 182.585C159.013 182.581 159.013 182.578 159.013 182.576C159.018 182.565 159.022 182.553 159.029 182.544C159.036 182.523 159.048 182.505 159.061 182.489C159.075 182.471 159.091 182.455 159.11 182.441C159.114 182.438 159.119 182.434 159.123 182.429C159.135 182.418 159.149 182.411 159.162 182.402C159.204 182.379 159.252 182.36 159.309 182.347C159.314 182.489 159.321 182.631 159.325 182.771H159.328Z" fill="#20ECA1"/>
<path d="M160.394 176.597C160.376 176.835 160.357 177.067 160.339 177.303C160.263 177.241 160.208 177.182 160.172 177.122C160.153 177.092 160.139 177.065 160.13 177.037C160.126 177.023 160.121 177.01 160.121 176.996C160.114 176.968 160.114 176.941 160.119 176.916C160.121 176.904 160.123 176.893 160.126 176.881C160.13 176.87 160.133 176.858 160.137 176.847C160.149 176.824 160.16 176.803 160.176 176.78C160.185 176.771 160.195 176.76 160.204 176.748C160.215 176.737 160.224 176.725 160.236 176.714C160.263 176.686 160.295 176.661 160.332 176.638C160.351 176.622 160.371 176.61 160.394 176.597Z" fill="#01CB9E"/>
<path d="M78.3563 174.291C78.3288 174.286 78.3058 174.281 78.2806 174.274C78.2577 174.268 78.2347 174.261 78.2141 174.252C78.159 174.226 78.1131 174.192 78.0741 174.148C78.0466 174.116 78.0236 174.082 78.003 174.04C77.9938 174.022 77.9846 174.001 77.9754 173.979C78.1705 173.997 78.2806 174.125 78.3563 174.291Z" fill="#01CB9E"/>
<path d="M63.7512 175.144C63.5815 175.066 63.4553 174.956 63.4415 174.754C63.6205 174.823 63.7283 174.949 63.7512 175.144Z" fill="#01CB9E"/>
<path d="M79.6408 175.681C79.5972 175.638 79.5582 175.594 79.5169 175.551C79.4756 175.507 79.432 175.463 79.3907 175.417H79.393C79.5468 175.44 79.634 175.525 79.6408 175.681Z" fill="#01CB9E"/>
<path d="M155.27 139.484C155.27 139.484 155.265 139.481 155.263 139.481C155.26 139.479 155.26 139.477 155.258 139.475L155.27 139.484Z" fill="#01D19E"/>
<path d="M93.8903 160.574C93.8237 160.379 93.8467 160.216 94.0532 160.12C94.2987 160.379 94.1381 160.494 93.8903 160.574Z" fill="#70FEA3"/>
<path d="M158.518 145.422C158.307 145.319 158.275 145.135 158.293 144.929C158.493 145.037 158.548 145.209 158.518 145.422Z" fill="#01D19E"/>
<path d="M124.601 70.1942L124.566 70.2424C123.548 71.19 122.571 72.1835 121.508 73.0738C118.38 75.6894 114.799 77.2772 110.723 77.7292C110.135 77.7957 109.5 77.7384 108.963 78.0917C107.97 78.0917 106.977 78.094 105.984 78.0963C104.947 77.6558 103.818 77.7476 102.74 77.5342C97.6339 76.5292 93.287 74.1177 89.5985 70.4765C89.5021 70.3801 89.3484 70.3411 89.2223 70.2768L89.2154 70.2149L89.1535 70.208C88.6305 69.1801 87.8024 68.4069 86.9903 67.6176C86.8802 67.1564 86.6921 66.7503 86.2379 66.5254C86.1233 66.2501 86.0292 65.9633 85.8893 65.7017C84.9626 63.9648 83.9464 62.2646 83.5771 60.2891C83.2697 60.1124 83.3133 59.7775 83.2009 59.5067C82.8522 58.6738 83.0678 57.6872 82.4668 56.9346C82.5311 56.6754 82.5196 56.4253 82.3957 56.1821C82.6228 55.5786 82.398 54.9522 82.4852 54.3396C82.3751 52.5018 82.4255 50.6754 82.5723 48.8444C82.9462 48.7779 83.1894 48.67 82.7192 48.3511C82.7834 48.1171 82.8476 47.8807 82.9118 47.6467C82.7994 46.9492 83.3179 46.332 83.1642 45.6276C83.1894 45.4716 83.2146 45.3156 83.2399 45.1595C83.9762 44.2624 84.1069 43.1037 84.568 42.0873C85.1094 40.8987 86.043 39.919 86.3595 38.6227C86.5889 38.5217 86.738 38.3611 86.7495 38.0972C86.8871 38.01 87.0247 37.9228 87.1624 37.8334C87.2862 37.2735 88.0295 37.0877 88.0065 36.4383C88.3185 36.3397 88.424 36.0575 88.5639 35.8051C89.0158 35.6307 89.353 35.3485 89.4585 34.8483L89.4631 34.8437C89.8554 34.7634 90.1352 34.5546 90.2499 34.1554C90.2958 34.0819 90.3417 34.0062 90.3876 33.9328C90.7729 33.7837 91.0505 33.5037 91.289 33.1802C91.9015 33.0173 92.358 32.6594 92.6447 32.0904C92.936 32.0101 93.1998 31.8907 93.3581 31.6131C93.6632 31.6475 93.8031 31.4525 93.9109 31.2139L93.9866 31.2254L94.0532 31.1864C95.2643 30.6082 96.4778 30.0368 97.682 29.4449C98.3404 29.1214 99.1455 29.0846 99.6594 28.4651C99.7764 28.4583 99.8933 28.4514 100.013 28.4445C100.432 28.6716 100.689 28.4238 100.93 28.1279C101.082 28.1141 101.233 28.098 101.382 28.0843C101.976 28.2128 102.524 28.1462 102.983 27.708C103.139 27.6942 103.295 27.6804 103.451 27.669C104.183 27.6552 104.965 27.942 105.603 27.3271C105.729 27.3225 105.857 27.3156 105.986 27.311H109.573C110.835 27.9191 112.221 27.8617 113.558 28.0682C113.716 28.0911 113.874 28.1141 114.03 28.137C114.934 28.7015 115.916 29.025 116.98 29.0961C117.051 29.1191 117.125 29.1351 117.198 29.1489C118.12 29.6032 119.04 30.0598 119.962 30.5141C120.52 31.1519 121.355 31.3814 121.988 31.9183C122.704 32.5263 123.25 33.2766 123.818 34.0108C123.848 34.137 123.876 34.2632 123.903 34.3894C123.864 34.6601 123.857 34.9194 124.16 35.0571C124.201 35.4448 124.245 35.8326 124.286 36.2181C124.181 36.3787 124.181 36.5393 124.286 36.6976C124.238 37.1611 124.188 37.6223 124.14 38.0835C124.048 38.0766 123.958 38.072 123.869 38.0651C123.525 40.0039 122.217 41.0777 120.522 41.8051C120.238 41.7156 120.033 41.7821 119.951 42.0919C119.806 42.1492 119.662 42.2066 119.517 42.2639C119.361 42.2318 119.205 42.1997 119.049 42.1676C118.595 41.8509 118.139 41.8624 117.68 42.1584C117.524 42.1859 117.368 42.2112 117.212 42.2387C117.143 42.1951 117.074 42.1492 117.006 42.1056C116.836 41.5894 116.414 41.75 116.051 41.7477C115.971 41.7638 115.888 41.7798 115.808 41.7959C115.845 41.766 115.863 41.7293 115.866 41.6834C115.212 40.8024 114.299 40.371 113.251 40.1783C113.189 40.1875 113.134 40.176 113.081 40.1439C112.521 39.5542 111.932 39.0517 111.032 39.4142C110.874 39.4303 110.716 39.4464 110.558 39.4601L110.599 39.3569C110.413 38.8682 110.071 38.9141 109.69 39.0884C108.459 39.0953 107.225 38.8636 106 39.155C105.745 39.0379 105.511 39.0609 105.302 39.2559C105.185 39.1963 105.066 39.1343 104.947 39.0747C104.644 38.9599 104.437 39.0402 104.36 39.3729C104.288 39.4188 104.217 39.4647 104.148 39.5106C103.995 39.4945 103.843 39.4785 103.69 39.4624C103.35 39.1068 103.27 39.3454 103.226 39.6643C103.08 39.7584 102.93 39.8548 102.781 39.9488C101.765 39.8938 101.033 40.472 100.313 41.0708L100.263 41.0984C99.9438 41.0387 99.8108 41.2108 99.7718 41.4976C99.625 41.5986 99.4781 41.7018 99.3313 41.8051C98.8083 41.8532 98.5422 42.1951 98.3748 42.6471C98.3083 42.7114 98.2418 42.7756 98.1752 42.8376C97.5582 43.1427 97.0535 43.5534 96.8746 44.2578C96.7714 44.3978 96.6659 44.5377 96.5626 44.68C96.3241 44.7603 96.1383 44.8888 96.1497 45.1779C95.5992 45.9167 95.0992 46.683 94.9248 47.6123C94.5417 47.7454 94.6083 48.1607 94.4202 48.4154C94.3078 48.8582 93.9981 49.2689 94.2023 49.7622C94.1816 49.932 94.1633 50.1041 94.1426 50.2761C93.7297 50.5928 93.7228 51.054 93.7182 51.506C93.7022 52.4513 93.6999 53.3943 93.693 54.3396V55.0899C93.5714 55.4409 93.654 55.6773 94.0577 55.7278C94.3261 57.21 95.051 58.5132 95.668 59.8578C96.7806 61.6566 98.2005 63.187 99.9874 64.2906C101.949 65.4998 104.015 66.5277 106.44 66.3579C107.126 66.5071 107.814 66.491 108.502 66.374C110.684 66.5415 112.581 65.7247 114.134 64.3411C115.698 62.9461 117.134 61.4501 119.254 60.9224C119.57 60.9178 119.887 60.9132 120.206 60.9086C120.595 61.0509 120.976 61.2298 121.375 61.3331C123.717 61.9457 125.291 63.9465 125.429 66.351C125.507 67.73 125.08 68.9575 124.601 70.1942Z" fill="white"/>
<path d="M164.505 33.4714C164.197 35.5204 163.193 37.1311 161.481 38.2989C161.25 38.3632 161.018 38.4251 160.789 38.4894C160.415 38.588 160.041 38.6867 159.667 38.7877C159.318 38.3861 159.08 38.4435 158.956 38.962C157.352 39.001 155.751 39.0378 154.148 39.0768C153.235 38.9506 153.526 39.6481 153.522 40.0611C153.49 43.1402 153.487 46.2217 153.476 49.3008C153.471 50.9849 153.467 52.6668 153.462 54.3509C153.46 56.1864 153.46 58.022 153.457 59.8576C153.473 60.3876 153.501 60.9176 153.503 61.4476C153.529 65.277 153.547 69.1088 153.568 72.9382C153.542 73.1676 153.517 73.3994 153.492 73.6288C153.318 73.7367 153.226 73.8766 153.304 74.0877C153.157 74.2414 153.12 74.425 153.162 74.6292C152.937 74.7646 152.758 74.9298 152.797 75.2304C152.733 75.2625 152.712 75.3152 152.735 75.3841C152.494 75.4804 152.329 75.6342 152.34 75.9187C152.081 76.1871 151.822 76.4556 151.563 76.724C150.602 77.1715 149.64 77.6166 148.677 78.064C148.044 78.0594 147.408 78.0548 146.773 78.0502C146.617 77.7932 146.383 77.7542 146.115 77.8162C145.924 77.7818 145.736 77.7451 145.546 77.7084C144.812 77.2219 144.14 76.6713 143.532 76.0495C143.289 75.8017 143.057 75.5424 142.835 75.2716C142.724 75.134 142.617 74.9963 142.511 74.8541L142.5 74.776V74.7577C142.527 74.5466 142.447 74.3906 142.259 74.2919C142.229 74.1451 142.199 74.0005 142.169 73.856C142.176 73.7 142.185 73.5439 142.192 73.3879C142.36 73.2502 142.396 73.1447 142.346 73.0598C142.339 73.0483 142.33 73.0369 142.318 73.0277C142.268 72.9749 142.181 72.9313 142.068 72.8946C142.002 72.6009 141.938 72.3049 141.873 72.0089C142.273 70.4763 141.99 68.9413 141.867 67.4086C141.867 65.7382 141.867 64.0679 141.869 62.3952C142.224 61.5761 141.834 60.6882 142.105 59.8599C141.8 59.1899 142.188 58.435 141.853 57.7673C141.86 57.0882 141.867 56.4113 141.873 55.7321C141.864 54.7432 141.855 53.7543 141.844 52.7654C142.19 51.632 141.809 50.4503 142.066 49.31C141.995 48.9176 141.924 48.5276 141.853 48.1352C141.903 47.6832 141.954 47.2312 142.004 46.7792C142.339 46.7379 142.431 46.5154 142.431 46.2171C142.431 45.1157 142.431 44.0121 142.433 42.9108C142.433 41.8094 142.433 40.7081 142.44 39.6068C142.44 39.4668 142.422 39.3567 142.385 39.2672C142.364 39.2167 142.337 39.1708 142.302 39.1364C142.178 39.001 141.979 38.9712 141.713 39.0125C140.958 39.0378 140.206 39.0607 139.453 39.0859C138.54 39.0446 137.63 39.0056 136.717 38.9643C136.696 38.8335 136.659 38.7418 136.609 38.6752C136.6 38.6638 136.591 38.6546 136.581 38.6454C136.419 38.4779 136.148 38.5422 135.889 38.5835C135.641 38.572 135.396 38.5582 135.148 38.5444C135.12 38.6018 135.097 38.6638 135.079 38.7257C135.012 38.6936 134.944 38.689 134.873 38.7119C134.834 38.6729 134.797 38.6729 134.76 38.7142C134.641 38.4802 134.499 38.2806 134.191 38.3196C132.634 37.2458 131.556 35.8485 131.23 33.9418C131.31 33.1663 131.315 32.393 131.498 31.6152C131.741 30.5781 132.517 29.8646 132.9 28.9284C132.959 28.9353 133.008 28.9147 133.044 28.8711C133.324 28.8711 133.476 28.7219 133.537 28.4626C134.565 28.1001 135.508 27.499 136.646 27.4416C137.586 27.3957 138.545 27.6137 139.472 27.2925H144.514C146.044 27.5357 147.574 27.5357 149.104 27.2925H154.146C155.676 27.5357 157.206 27.5311 158.736 27.2971C159.08 27.3131 159.426 27.3269 159.77 27.343C159.894 27.5747 160.05 27.7445 160.348 27.6389C161.257 27.8776 161.936 28.5521 162.771 28.9261C162.991 29.4125 163.266 29.8531 163.734 30.1422C164.05 31.2389 164.569 32.2875 164.509 33.4714H164.505Z" fill="white"/>
<path d="M159.667 38.7877C159.665 38.8703 159.66 38.9529 159.656 39.0378C159.424 39.0126 159.19 38.9873 158.956 38.9621C159.08 38.4436 159.318 38.3862 159.667 38.7877Z" fill="#50F5A3"/>
<path d="M78.0878 71.7474C76.7253 67.7046 75.1769 63.7306 73.5712 59.7796C72.9794 57.9142 72.3325 56.0694 71.4815 54.3027C71.1145 52.5337 70.2313 50.9505 69.6304 49.2664C69.5363 48.9429 69.44 48.6171 69.3436 48.2936C68.9537 47.0133 68.277 45.8316 68.0659 44.4917C68.0269 44.331 67.9902 44.1704 67.9512 44.0098C66.9786 43.0897 66.9718 41.7291 66.4373 40.6072C66.0955 39.8913 65.7124 39.1295 65.7055 38.2806C65.6711 38.1337 65.6344 37.9869 65.5977 37.8401C65.4716 37.7597 65.3431 37.6794 65.217 37.5968C65.2628 37.5165 65.3087 37.4339 65.3546 37.3536C65.3156 37.1976 65.2766 37.0416 65.2376 36.8856C64.9784 36.741 64.6825 36.6102 64.9486 36.2316C64.9233 36.1055 64.8958 35.9793 64.8706 35.8531C64.4462 35.6397 64.3682 35.19 64.2283 34.8137C63.5975 33.1227 63.0493 31.3972 62.1523 29.8164C62.0835 29.7384 62.0124 29.6604 61.9413 29.5846C60.7852 28.5315 59.3309 28.0015 57.966 27.3154C57.9179 27.3476 57.872 27.3498 57.8215 27.3177C57.2343 27.3177 56.6448 27.32 56.0552 27.3223C55.429 27.8317 54.6445 27.8753 53.9059 28.0542C53.6306 28.1919 53.3554 28.3342 53.0801 28.4741C52.9379 28.8206 52.6993 29.0523 52.3208 29.1235H52.3185C52.2727 29.3827 52.119 29.5365 51.8621 29.5846C51.752 29.7315 51.6396 29.8783 51.5294 30.0252C51.5868 30.3189 51.4216 30.4382 51.1693 30.4932C51.1418 30.5667 51.112 30.6424 51.0844 30.7158C50.2426 33.0079 49.403 35.3001 48.5635 37.5923C48.4419 37.6794 48.318 37.7666 48.1942 37.8538C48.1322 38.0672 48.0703 38.2829 48.0084 38.4986C47.6046 40.201 47.0312 41.8393 46.1297 43.3513C46.0953 43.5005 46.0609 43.6496 46.0265 43.7987C46.1067 44.0947 45.9095 44.237 45.7053 44.3723C45.6893 44.4894 45.6732 44.6041 45.6549 44.7188C45.9049 45.0905 45.6021 45.219 45.3658 45.3773C45.3222 45.5402 45.2787 45.7031 45.2351 45.866C45.3865 46.1505 45.1961 46.2469 44.9805 46.3341C44.9185 46.5612 44.8566 46.7861 44.7947 47.0133C44.774 47.4584 44.7901 47.9219 44.2854 48.149L44.2808 48.1536C44.2694 48.383 44.2602 48.6125 44.251 48.8419C43.6408 49.9501 43.5445 51.2901 42.7026 52.2951C42.6591 52.4419 42.6155 52.5911 42.5719 52.7379C42.7371 53.3413 42.1223 53.7658 42.2003 54.3486C42.042 54.6629 41.8172 54.9589 41.9296 55.3467C42.0122 55.6931 41.9158 55.9226 41.5236 55.957C41.0534 57.2144 40.5051 58.4465 40.2184 59.7658C39.56 61.3971 38.8811 63.0193 38.248 64.6575C37.4566 66.6996 36.64 68.7371 35.9472 70.8158C35.3508 72.6009 35.8302 74.2529 36.929 75.7466C37.0116 75.859 37.0322 76.0173 37.0827 76.155C37.3648 76.3707 37.7066 76.529 37.8511 76.8915C38.771 77.2885 39.6931 77.6854 40.6129 78.0846C41.1061 77.9952 41.597 78.0089 42.081 78.1397C43.1545 77.5523 44.4139 77.3527 45.3819 76.5451C47.061 74.4434 47.6597 71.846 48.6071 69.4162C48.903 68.6568 49.2448 68.3447 50.0843 68.3539C54.5941 68.3952 59.1061 68.3929 63.6158 68.3677C64.3774 68.3631 64.7765 68.5742 65.0357 69.3359C65.5587 70.8824 66.2515 72.3692 66.7928 73.9087C67.5429 76.0334 68.9628 77.355 71.1627 77.846C71.298 77.8759 71.415 77.9952 71.5389 78.0732C71.7132 78.0846 71.8875 78.0961 72.0619 78.1076C72.1238 78.0571 72.1811 78.0617 72.2339 78.1214C72.4908 78.025 72.75 77.9997 73.0115 78.103C73.7433 77.8047 74.5461 77.6166 75.1884 77.1852C76.4821 76.3202 77.4914 75.1913 77.7873 73.5715C77.8401 73.287 77.8126 72.9451 78.1245 72.7546C78.0213 72.422 78.0076 72.087 78.0878 71.7474ZM56.4039 48.188C56.4429 48.2523 56.4773 48.3257 56.5026 48.4083C56.475 48.3257 56.4429 48.2523 56.4039 48.188Z" fill="white"/>
<path d="M142.19 73.3878C142.105 73.3947 142.02 73.4016 141.938 73.4085C141.979 73.2387 142.023 73.0666 142.064 72.8945H142.066C142.179 72.9312 142.266 72.9748 142.316 73.0276C142.328 73.0368 142.337 73.0483 142.344 73.0597C142.394 73.1446 142.358 73.2502 142.19 73.3878Z" fill="#70FEA3"/>
<path d="M142.436 39.6066C142.431 40.7079 142.429 41.8093 142.431 42.9106C142.429 44.0119 142.429 45.1156 142.429 46.2169C142.429 46.5152 142.337 46.7377 142.002 46.779C141.561 45.5768 141.963 44.324 141.779 43.1079C141.782 41.7427 141.899 40.3752 141.711 39.0123C141.977 38.971 142.176 39.0009 142.3 39.1362C142.332 39.1707 142.36 39.2165 142.383 39.267C142.417 39.3565 142.436 39.4666 142.436 39.6066Z" fill="#70FEA3"/>
<path d="M136.715 38.9643C136.481 38.985 136.249 39.0056 136.015 39.0263C135.974 38.8794 135.93 38.7303 135.886 38.5835C136.146 38.5422 136.416 38.4779 136.579 38.6454C136.589 38.6546 136.598 38.6661 136.607 38.6752C136.657 38.7418 136.694 38.8336 136.715 38.9643Z" fill="#50F5A3"/>
<path d="M56.2686 48.0134C56.2204 47.9652 56.1677 47.9216 56.1103 47.8872C56.1677 47.9216 56.2204 47.9629 56.2686 48.0134Z" fill="#3DF1A3"/>
<path d="M94.2161 55.7552C94.1657 55.7369 94.1129 55.7277 94.0578 55.7277C93.654 55.6772 93.5714 55.4409 93.693 55.0898C93.8444 55.1334 93.9936 55.1793 94.145 55.2229C94.1703 55.3996 94.1932 55.5786 94.2161 55.7552Z" fill="#2EEEA2"/>
<path d="M56.2686 48.0134C56.2204 47.9652 56.1677 47.9216 56.1103 47.8872C56.1677 47.9216 56.2204 47.9629 56.2686 48.0134Z" fill="#2EEEA2"/>
<path d="M41.5236 55.957C41.496 55.645 41.636 55.4453 41.9297 55.3467C42.0123 55.6931 41.9159 55.9226 41.5236 55.957Z" fill="#2EEEA2"/>
<path d="M82.5724 48.8444C82.5333 48.6539 82.5609 48.4819 82.7192 48.3511C83.1896 48.67 82.9463 48.7778 82.5724 48.8444Z" fill="#3DF1A3"/>
<path d="M115.866 41.6834C114.873 41.3897 114.008 40.8757 113.251 40.1782C114.299 40.371 115.212 40.8023 115.866 41.6834Z" fill="#70FEA3"/>
<path d="M113.081 40.1435C112.381 39.9508 111.608 39.9599 111.032 39.4139C111.932 39.0513 112.521 39.5538 113.081 40.1435Z" fill="#70FEA3"/>
<path d="M119.05 42.1674V42.4152C118.595 42.4083 118.141 42.4038 117.687 42.3992C117.685 42.3189 117.682 42.2386 117.68 42.1582C118.139 41.8623 118.595 41.8508 119.05 42.1674Z" fill="#70FEA3"/>
<path d="M110.599 39.3565C110.259 39.3909 109.888 39.5354 109.69 39.088C110.071 38.9136 110.413 38.8677 110.599 39.3565Z" fill="#70FEA3"/>
<path d="M117.006 42.1054C116.595 42.2316 116.285 42.0894 116.051 41.7475C116.414 41.7475 116.836 41.5892 117.006 42.1054Z" fill="#70FEA3"/>
<path d="M104.947 39.0746C104.91 39.2031 104.873 39.3316 104.837 39.4601C104.678 39.4303 104.518 39.4027 104.359 39.3729C104.438 39.0402 104.644 38.9599 104.947 39.0746Z" fill="#70FEA3"/>
<path d="M103.71 39.7169C103.55 39.6986 103.387 39.6825 103.226 39.6641C103.27 39.3452 103.35 39.1066 103.69 39.4622L103.71 39.7169Z" fill="#70FEA3"/>
<path d="M120.522 41.8047C120.412 41.9401 120.304 42.0732 120.194 42.2085C120.114 42.1695 120.033 42.1305 119.951 42.0915C120.033 41.7818 120.238 41.7152 120.522 41.8047Z" fill="#70FEA3"/>
</g>
<defs>
<clipPath id="clip0_723_929">
<rect width="200" height="200" fill="white"/>
</clipPath>
</defs>
</svg>
